<?xml version="1.0" standalone="no"?>
  <!DOCTYPE svg PUBLIC "-//W3C//DTD SVG 1.1//EN" "http://www.w3.org/Graphics/SVG/1.1/DTD/svg11.dtd" >
  <svg>
  <metadata>
  Created by font-carrier
  </metadata>
  <defs>
  <font id="AkzidenzGroteskPro-BoldCn" horiz-adv-x="1000" vert-adv-y="1000" >
    <font-face
      
      font-family="Akzidenz-Grotesk Pro Bold Cnd"
      
      font-weight="400"
      
      font-stretch="normal"
      
      units-per-em="1000"
      
      ascent="994"
      
      descent="-258"
      
    />
      <missing-glyph />

      

      
      <glyph glyph-name="uni21" unicode="&#x21;" d="M78 706L191 706L191 393L172 190L94 190L78 387L78 706M194 0L75 0L75 132L194 132L194 0Z"  horiz-adv-x="229" vert-adv-y="1000"  />

      
      <glyph glyph-name="uni22" unicode="&#x22;" d="M276 741L242 452L209 452L171 741L276 741M129 741L95 452L62 452L25 741L129 741Z"  horiz-adv-x="300" vert-adv-y="1000"  />

      
      <glyph glyph-name="uni23" unicode="&#x23;" d="M522 405L413 405L404 316L510 316L510 220L396 220L375 0L280 0L300 220L229 220L208 0L112 0L132 220L15 220L15 316L141 316L149 405L27 405L27 501L159 501L178 706L274 706L255 501L326 501L345 706L441 706L421 501L522 501L522 405M317 405L245 405L238 316L309 316L317 405Z"  horiz-adv-x="537" vert-adv-y="1000"  />

      
      <glyph glyph-name="uni24" unicode="&#x24;" d="M41 234L151 234L151 155Q151 89 211 89Q232 89 245 97Q258 105 263 120.50Q268 136 269.50 146.50Q271 157 271 174Q271 223 239 255L98 399Q67 431 52 460.50Q37 490 37 537Q37 611 69 651Q106 698 188 703L188 783L239 783L239 703Q289 696 320 671Q347 650 358.50 617.50Q370 585 370 525L370 480L258 480L258 546Q258 614 208 614Q151 614 151 538Q151 507 177 479L334 315Q385 263 385 176Q385 11 239-6L239-100L188-100L188-6Q104 0 72.50 41Q41 82 41 156L41 234Z"  horiz-adv-x="417" vert-adv-y="1000"  />

      
      <glyph glyph-name="uni25" unicode="&#x25;" d="M519 692L254-45L190-23L456 715L519 692M266 561L266 326Q266 275 235.50 246.50Q205 218 148 218Q91 218 58.50 242Q26 266 26 328L26 554Q26 671 145 671Q266 671 266 561M185 325L185 562Q185 578 183 586.50Q181 595 172.50 602Q164 609 146 609Q128 609 118.50 601Q109 593 107.50 585Q106 577 106 561L106 320Q106 282 146 282Q166 282 175.50 291Q185 300 185 325M683 337L683 102Q683 51 652.50 22.50Q622-6 565-6Q508-6 475.50 18Q443 42 443 104L443 330Q443 447 562 447Q683 447 683 337M602 101L602 338Q602 354 600 362.50Q598 371 589.50 378Q581 385 563 385Q545 385 535.50 377Q526 369 524.50 361Q523 353 523 337L523 96Q523 58 563 58Q583 58 592.50 67Q602 76 602 101Z"  horiz-adv-x="708" vert-adv-y="1000"  />

      
      <glyph glyph-name="uni26" unicode="&#x26;" d="M299 115L196 302Q170 269 157 242.50Q144 216 144 181Q144 145 168.50 119.50Q193 94 230 94Q264 94 299 115M228 496L256 537Q275 566 275 590Q275 609 264.50 617.50Q254 626 242 626Q224 626 214 611Q204 596 204 577Q204 544 228 496M390 320L493 320Q486 188 429 108Q443 93 457 87.50Q471 82 506 82L506-3Q458-9 449-9Q394-9 357 28Q317 6 289-3Q261-12 223-12Q130-12 78.50 43.50Q27 99 27 182Q27 207 32.50 232Q38 257 48 277.50Q58 298 68.50 315.50Q79 333 93 349Q107 365 116 374.50Q125 384 137 395Q149 406 150 407Q98 501 98 571Q98 637 137 677.50Q176 718 244 718Q297 718 338.50 687Q380 656 380 591Q380 551 362.50 511.50Q345 472 328.50 451Q312 430 277 390L369 209Q389 258 390 320Z"  horiz-adv-x="521" vert-adv-y="1000"  />

      
      <glyph glyph-name="uni27" unicode="&#x27;" d="M129 741L95 452L62 452L25 741L129 741Z"  horiz-adv-x="154" vert-adv-y="1000"  />

      
      <glyph glyph-name="uni28" unicode="&#x28;" d="M272-95L272-182Q169-146 111.50-75.50Q54-5 54 89L54 500Q54 678 272 774L272 681Q216 649 194.50 600Q173 551 173 480L173 83Q173 23 196.50-16.50Q220-56 272-95Z"  horiz-adv-x="292" vert-adv-y="1000"  />

      
      <glyph glyph-name="uni29" unicode="&#x29;" d="M20 687L20 774Q67 759 115 724Q178 679 208 626.50Q238 574 238 502L238 91Q238-86 20-182L20-89Q77-58 98-8.50Q119 41 119 112L119 509Q119 571 96.50 606.50Q74 642 20 687Z"  horiz-adv-x="292" vert-adv-y="1000"  />

      
      <glyph glyph-name="uni2a" unicode="&#x2a;" d="M358 557L260 523L320 444L252 391L188 474L130 391L60 442L116 522L20 550L45 633L143 605L143 708L230 708L230 604L330 638L358 557Z"  horiz-adv-x="378" vert-adv-y="1000"  />

      
      <glyph glyph-name="uni2b" unicode="&#x2b;" d="M476 249L339 249L339 91L220 91L220 249L82 249L82 349L220 349L220 506L339 506L339 349L476 349L476 249Z"  horiz-adv-x="558" vert-adv-y="1000"  />

      
      <glyph glyph-name="uni2c" unicode="&#x2c;" d="M153 0L70-135L26-135L94 0L36 0L36 129L153 129L153 0Z"  horiz-adv-x="187" vert-adv-y="1000"  />

      
      <glyph glyph-name="uni2d" unicode="&#x2d;" d="M281 242L33 242L33 341L281 341L281 242Z"  horiz-adv-x="314" vert-adv-y="1000"  />

      
      <glyph glyph-name="uni2e" unicode="&#x2e;" d="M152 0L35 0L35 129L152 129L152 0Z"  horiz-adv-x="187" vert-adv-y="1000"  />

      
      <glyph glyph-name="uni2f" unicode="&#x2f;" d="M240 706L111 0L12 0L142 706L240 706Z"  horiz-adv-x="250" vert-adv-y="1000"  />

      
      <glyph glyph-name="uni30" unicode="&#x30;" d="M366 510L366 152Q366 79 325 35Q284-9 201-9Q146-9 109.50 5.50Q73 20 56.50 46.50Q40 73 34.50 97Q29 121 29 152L29 519Q29 598 76.50 636Q124 674 196 674Q366 674 366 510M251 151L251 512Q251 551 241 569Q231 587 199 587Q174 587 161 574.50Q148 562 146 550Q144 538 144 517L144 143Q144 81 196 81Q227 81 239 98.50Q251 116 251 151Z"  horiz-adv-x="396" vert-adv-y="1000"  />

      
      <glyph glyph-name="uni31" unicode="&#x31;" d="M265 0L148 0L148 507Q115 477 48 466L48 558Q49 558 57.50 560.50Q66 563 74 566Q82 569 96.50 577Q111 585 124 595.50Q137 606 154 624Q171 642 187 665L265 665L265 0Z"  horiz-adv-x="396" vert-adv-y="1000"  />

      
      <glyph glyph-name="uni32" unicode="&#x32;" d="M371 0L21 0L21 4Q21 108 47.50 167.50Q74 227 143 296Q219 372 234 393Q249 414 249 451L249 527Q249 585 200 585Q144 585 144 521L144 442L35 442L35 526Q35 601 76.50 637.50Q118 674 194 674Q270 674 317 640Q364 606 364 530L364 442Q364 392 347 360.50Q330 329 282 281L223 222Q199 198 187.50 185Q176 172 163 147.50Q150 123 150 100L371 100L371 0Z"  horiz-adv-x="396" vert-adv-y="1000"  />

      
      <glyph glyph-name="uni33" unicode="&#x33;" d="M35 466L35 548Q35 612 82 643Q129 674 201 674Q283 674 323 635Q363 596 363 537L363 462Q363 410 341.50 389Q320 368 268 359Q301 353 313 349Q325 345 341 334Q357 323 362 302Q367 281 367 246L367 143Q367 76 326.50 33.50Q286-9 199-9Q126-9 77.50 27.50Q29 64 29 128L29 209L144 209L144 138Q144 110 156 95Q168 80 201 80Q251 80 251 134L251 234Q251 280 233.50 298Q216 316 165 316L141 316L141 394L159 394Q210 394 228.50 412.50Q247 431 247 476L247 526Q247 538 246 545Q245 552 241 562.50Q237 573 225.50 578Q214 583 196 583Q145 583 145 535L145 466L35 466Z"  horiz-adv-x="396" vert-adv-y="1000"  />

      
      <glyph glyph-name="uni34" unicode="&#x34;" d="M371 126L331 126L331 0L224 0L224 126L21 126L21 219L192 668L331 668L331 219L371 219L371 126M119 219L224 219L231 550L119 219Z"  horiz-adv-x="396" vert-adv-y="1000"  />

      
      <glyph glyph-name="uni35" unicode="&#x35;" d="M29 207L143 207L143 132Q143 82 194 82Q249 82 249 137L249 313Q249 376 196 376Q185 376 173.50 372Q162 368 149 352Q136 336 132 309L41 309Q47 634 48 665L357 665L357 565L141 565L139 428Q182 463 238 463Q300 463 333.50 426Q367 389 367 332L367 153Q367-9 203-9Q29-9 29 138L29 207Z"  horiz-adv-x="396" vert-adv-y="1000"  />

      
      <glyph glyph-name="uni36" unicode="&#x36;" d="M362 489L252 489L252 528Q252 555 242.50 570Q233 585 201 585Q145 585 145 523L145 388Q195 429 251 429Q315 429 341.50 391Q368 353 368 300L368 145Q368 128 367 115Q366 102 357 76.50Q348 51 331.50 34.50Q315 18 281 4.50Q247-9 200-9Q131-9 81 24.50Q31 58 31 136L31 530Q31 601 76 637.50Q121 674 202 674Q362 674 362 539L362 489M145 268L145 159Q145 138 146.50 125Q148 112 161.50 97Q175 82 201 82Q253 82 253 142L253 262Q253 278 252 287Q251 296 246.50 308.50Q242 321 230.50 327.50Q219 334 201 334Q145 334 145 268Z"  horiz-adv-x="396" vert-adv-y="1000"  />

      
      <glyph glyph-name="uni37" unicode="&#x37;" d="M19 665L378 665L378 566Q312 451 264.50 304Q217 157 217 0L92 0Q96 128 150.50 291Q205 454 272 567L116 567L116 489L19 489L19 665Z"  horiz-adv-x="396" vert-adv-y="1000"  />

      
      <glyph glyph-name="uni38" unicode="&#x38;" d="M365 243L365 140Q365 66 318 28.50Q271-9 199-9Q112-9 69.50 32Q27 73 27 143L27 228Q27 286 44.50 311Q62 336 106 355Q73 369 55 392.50Q37 416 37 462L37 532Q37 674 198 674Q358 674 358 529L358 470Q358 421 344 398Q330 375 288 355Q331 339 348 313Q365 287 365 243M143 246L143 143Q143 83 197 83Q252 83 252 143L252 246Q252 312 198 312Q173 312 159.50 299Q146 286 144.50 275Q143 264 143 246M147 533L147 452Q147 421 159.50 408Q172 395 199 395Q222 395 233.50 406Q245 417 246.50 428Q248 439 248 459L248 528Q248 583 198 583Q147 583 147 533Z"  horiz-adv-x="396" vert-adv-y="1000"  />

      
      <glyph glyph-name="uni39" unicode="&#x39;" d="M364 528L364 142Q364-9 188-9Q118-9 72 23Q26 55 26 126L26 179L141 179L141 137Q141 109 152 94Q163 79 194 79Q222 79 236 92Q250 105 250 136L250 277Q202 238 149 238Q83 238 54.50 271Q26 304 26 355L26 519Q26 599 68 636.50Q110 674 199 674Q364 674 364 528M250 402L250 524Q250 586 197 586Q177 586 164.50 579.50Q152 573 147.50 561Q143 549 142 540.50Q141 532 141 518L141 402Q141 380 142.50 368Q144 356 156.50 343Q169 330 193 330Q213 330 225.50 336Q238 342 243 355Q248 368 249 377Q250 386 250 402Z"  horiz-adv-x="396" vert-adv-y="1000"  />

      
      <glyph glyph-name="uni3a" unicode="&#x3a;" d="M196 381L76 381L76 512L196 512L196 381M196 0L76 0L76 130L196 130L196 0Z"  horiz-adv-x="229" vert-adv-y="1000"  />

      
      <glyph glyph-name="uni3b" unicode="&#x3b;" d="M194 382L75 382L75 512L194 512L194 382M194 0L112-135L67-135L138 0L75 0L75 130L194 130L194 0Z"  horiz-adv-x="229" vert-adv-y="1000"  />

      
      <glyph glyph-name="uni3c" unicode="&#x3c;" d="M445 76L87 269L87 376L445 571L445 457L196 327L445 200L445 76Z"  horiz-adv-x="559" vert-adv-y="1000"  />

      
      <glyph glyph-name="uni3d" unicode="&#x3d;" d="M474 354L85 354L85 452L474 452L474 354M474 162L85 162L85 260L474 260L474 162Z"  horiz-adv-x="559" vert-adv-y="1000"  />

      
      <glyph glyph-name="uni3e" unicode="&#x3e;" d="M472 271L114 76L114 189L363 320L114 447L114 571L472 377L472 271Z"  horiz-adv-x="559" vert-adv-y="1000"  />

      
      <glyph glyph-name="uni3f" unicode="&#x3f;" d="M255 190L142 190L142 225Q142 268 148.50 287Q155 306 176 338L242 440Q244 443 249 450.50Q254 458 255.50 460.50Q257 463 260 469.50Q263 476 264.50 480Q266 484 267.50 491Q269 498 269.50 505.50Q270 513 270 522L270 585Q270 634 225 634Q176 634 176 580L176 463L65 463L65 537Q65 569 66.50 589Q68 609 77.50 636Q87 663 103.50 678Q120 693 152.50 704Q185 715 231 715Q306 715 347 684.50Q388 654 388 573L388 521Q388 459 366 427L298 328Q269 286 262 266Q255 246 255 212L255 190M258 0L142 0L142 130L258 130L258 0Z"  horiz-adv-x="417" vert-adv-y="1000"  />

      
      <glyph glyph-name="uni40" unicode="&#x40;" d="M535 504L624 504L589 345Q558 203 558 179Q558 152 578 152Q597 152 622 179Q661 221 685 289Q709 357 709 425Q709 525 650.50 582Q592 639 488 639Q340 639 231.50 519Q123 399 123 236Q123 106 204.50 31Q286-44 415-44Q592-44 740 102L785 40Q715-24 663-54Q546-122 410-122Q348-122 290-106Q169-71 103.50 16Q38 103 38 233Q38 435 169.50 574.50Q301 714 491 714Q625 714 709 635.50Q793 557 793 432Q793 339 759 254.50Q725 170 669 119Q613 68 551 68Q515 68 491.50 86Q468 104 462 136Q406 68 336 68Q274 68 237.50 112Q201 156 201 232Q201 348 267.50 436Q334 524 422 524Q455 524 478.50 511Q502 498 525 464L535 504M490 350Q490 388 472 411.50Q454 435 424 435Q378 435 341 375Q304 315 304 240Q304 202 320.50 180Q337 158 365 158Q412 158 451 219Q490 280 490 350Z"  horiz-adv-x="834" vert-adv-y="1000"  />

      
      <glyph glyph-name="uni41" unicode="&#x41;" d="M428 0L296 0L279 115L159 115L140 0L10 0L147 706L296 706L428 0M265 224L222 527L175 224L265 224Z"  horiz-adv-x="437" vert-adv-y="1000"  />

      
      <glyph glyph-name="uni42" unicode="&#x42;" d="M50 706L280 706Q357 706 392.50 673Q428 640 428 562L428 499Q428 443 410 415.50Q392 388 345 380Q402 370 418.50 342Q435 314 435 251L435 149Q435 65 400.50 32.50Q366 0 277 0L50 0L50 706M180 605L180 427L230 427Q269 427 284 438.50Q299 450 299 492L299 543Q299 579 283.50 592Q268 605 232 605L180 605M180 325L180 102L236 102Q276 102 292 114.50Q308 127 308 173L308 256Q308 296 294 310.50Q280 325 242 325L180 325Z"  horiz-adv-x="479" vert-adv-y="1000"  />

      
      <glyph glyph-name="uni43" unicode="&#x43;" d="M302 265L430 265L430 148Q430-15 237-15Q216-15 196.50-13Q177-11 147.50-2.50Q118 6 97 21Q76 36 60.50 65Q45 94 45 134L45 550Q45 635 92 678Q139 721 242 721Q328 721 379 685.50Q430 650 430 580L430 449L302 449L302 538Q302 582 289 601.50Q276 621 235 621Q200 621 187.50 601.50Q175 582 175 544L175 166Q175 127 188.50 106.50Q202 86 239 86Q279 86 290.50 106Q302 126 302 173L302 265Z"  horiz-adv-x="458" vert-adv-y="1000"  />

      
      <glyph glyph-name="uni44" unicode="&#x44;" d="M50 706L280 706Q355 706 396.50 662Q438 618 438 535L438 181Q438 79 393 39.50Q348 0 259 0L50 0L50 706M180 603L180 103L234 103Q278 103 293.50 119.50Q309 136 309 179L309 531Q309 572 294 587.50Q279 603 239 603L180 603Z"  horiz-adv-x="479" vert-adv-y="1000"  />

      
      <glyph glyph-name="uni45" unicode="&#x45;" d="M402 0L50 0L50 706L392 706L392 599L180 599L180 433L380 433L380 326L180 326L180 109L402 109L402 0Z"  horiz-adv-x="417" vert-adv-y="1000"  />

      
      <glyph glyph-name="uni46" unicode="&#x46;" d="M396 597L181 597L181 420L383 420L383 315L181 315L181 0L50 0L50 706L396 706L396 597Z"  horiz-adv-x="396" vert-adv-y="1000"  />

      
      <glyph glyph-name="uni47" unicode="&#x47;" d="M433 0L322 0L322 42Q274-15 196-15Q117-15 80.50 26.50Q44 68 44 125L44 543Q44 638 95.50 679.50Q147 721 245 721Q324 721 378.50 690Q433 659 433 588L433 478L303 478L303 553Q303 583 291 601Q279 619 242 619Q205 619 190.50 598Q176 577 176 530L176 150Q176 86 238 86Q277 86 290 106Q303 126 303 167L303 277L223 277L223 383L433 383L433 0Z"  horiz-adv-x="479" vert-adv-y="1000"  />

      
      <glyph glyph-name="uni48" unicode="&#x48;" d="M429 0L299 0L299 323L180 323L180 0L50 0L50 706L180 706L180 429L299 429L299 706L429 706L429 0Z"  horiz-adv-x="479" vert-adv-y="1000"  />

      
      <glyph glyph-name="uni49" unicode="&#x49;" d="M179 0L50 0L50 706L179 706L179 0Z"  horiz-adv-x="229" vert-adv-y="1000"  />

      
      <glyph glyph-name="uni4a" unicode="&#x4a;" d="M122 224L122 157Q122 121 131.50 104.50Q141 88 168 88Q192 88 203.50 104Q215 120 215 159L215 706L346 706L346 152Q346 110 335 79Q324 48 307 30.50Q290 13 265 2.50Q240-8 217-11.50Q194-15 166-15Q1-15 1 129L1 224L122 224Z"  horiz-adv-x="396" vert-adv-y="1000"  />

      
      <glyph glyph-name="uni4b" unicode="&#x4b;" d="M461 0L320 0L182 345L182 0L50 0L50 706L182 706L182 431L323 706L457 706L296 401L461 0Z"  horiz-adv-x="458" vert-adv-y="1000"  />

      
      <glyph glyph-name="uni4c" unicode="&#x4c;" d="M371 0L50 0L50 706L180 706L180 107L371 107L371 0Z"  horiz-adv-x="375" vert-adv-y="1000"  />

      
      <glyph glyph-name="uni4d" unicode="&#x4d;" d="M638 0L508 0Q517 466 520 612L406 0L285 0L168 612Q175 174 178 0L50 0L50 706L262 706L345 212L429 706L638 706L638 0Z"  horiz-adv-x="688" vert-adv-y="1000"  />

      
      <glyph glyph-name="uni4e" unicode="&#x4e;" d="M450 0L286 0L161 529Q167 202 172 0L50 0L50 706L217 706L344 188Q333 616 331 706L450 706L450 0Z"  horiz-adv-x="500" vert-adv-y="1000"  />

      
      <glyph glyph-name="uni4f" unicode="&#x4f;" d="M44 148L44 547Q44 631 89 676Q134 721 242 721Q333 721 384 680.50Q435 640 435 559L435 150Q435-15 241-15Q44-15 44 148M304 170L304 534Q304 553 303 564Q302 575 296.50 591Q291 607 277 614.50Q263 622 241 622Q222 622 208.50 615.50Q195 609 188.50 601Q182 593 178.50 578Q175 563 174.50 554Q174 545 174 529L174 173Q174 147 176.50 131.50Q179 116 194.50 101.50Q210 87 240 87Q263 87 277 94.50Q291 102 296.50 117Q302 132 303 142Q304 152 304 170Z"  horiz-adv-x="479" vert-adv-y="1000"  />

      
      <glyph glyph-name="uni50" unicode="&#x50;" d="M50 706L311 706Q345 706 368.50 696Q392 686 404 672.50Q416 659 422.50 634.50Q429 610 430 593Q431 576 431 547L431 454Q431 359 405 326.50Q379 294 291 294L181 294L181 0L50 0L50 706M181 602L181 395L247 395Q284 395 293.50 408.50Q303 422 303 458L303 532Q303 571 293 586.50Q283 602 247 602L181 602Z"  horiz-adv-x="458" vert-adv-y="1000"  />

      
      <glyph glyph-name="uni51" unicode="&#x51;" d="M485-14L405-93L316-2Q281-15 228-15Q142-15 93 23.50Q44 62 44 138L44 558Q44 638 94.50 679.50Q145 721 240 721Q433 721 433 553L433 147Q433 96 414 60L485-14M175 541L175 173Q175 152 176 141.50Q177 131 182.50 116.50Q188 102 202 95.50Q216 89 238 89Q257 89 269.50 94.50Q282 100 288.50 107.50Q295 115 298 131.50Q301 148 301.50 159.50Q302 171 302 195L302 541Q302 559 301 569Q300 579 294.50 593.50Q289 608 275.50 615Q262 622 240 622Q217 622 202.50 614.50Q188 607 183 592Q178 577 176.50 567.50Q175 558 175 541Z"  horiz-adv-x="479" vert-adv-y="1000"  />

      
      <glyph glyph-name="uni52" unicode="&#x52;" d="M50 706L310 706Q376 706 406.50 675Q437 644 437 578L437 481Q437 425 418.50 398Q400 371 346 361Q442 341 442 238L442 94Q442 16 472 0L329 0Q328 3 325 9Q322 15 320 18Q318 21 316 27.50Q314 34 313 39Q312 44 311 51.50Q310 59 310 68L310 233Q310 276 297.50 293.50Q285 311 245 311L180 311L180 0L50 0L50 706M180 605L180 412L248 412Q282 412 295 426.50Q308 441 308 477L308 547Q308 581 294.50 593Q281 605 250 605L180 605Z"  horiz-adv-x="479" vert-adv-y="1000"  />

      
      <glyph glyph-name="uni53" unicode="&#x53;" d="M38 249L168 249L168 152Q168 133 171 120.50Q174 108 188.50 96.50Q203 85 230 85Q270 85 282.50 105Q295 125 295 172L295 196Q295 230 284.50 249.50Q274 269 250 285L127 367Q109 379 97 390Q85 401 71 420.50Q57 440 50 468Q43 496 43 533L43 547Q43 721 235 721Q311 721 363.50 684Q416 647 416 569L416 499L287 499L287 561Q287 622 229 622Q199 622 184.50 606Q170 590 170 546Q170 516 177 497.50Q184 479 212 460L339 374Q425 316 425 228L425 161Q425 78 384 31.50Q343-15 234-15Q196-15 163.50-8Q131-1 101.50 16Q72 33 55 66Q38 99 38 146L38 249Z"  horiz-adv-x="458" vert-adv-y="1000"  />

      
      <glyph glyph-name="uni54" unicode="&#x54;" d="M394 604L263 604L263 0L132 0L132 604L2 604L2 706L394 706L394 604Z"  horiz-adv-x="396" vert-adv-y="1000"  />

      
      <glyph glyph-name="uni55" unicode="&#x55;" d="M48 706L179 706L179 181Q179 139 190 117.50Q201 96 240 96Q261 96 274 103Q287 110 292 124Q297 138 298.50 150Q300 162 300 182L300 706L431 706L431 159Q431-15 236-15Q145-15 96.50 30Q48 75 48 162L48 706Z"  horiz-adv-x="479" vert-adv-y="1000"  />

      
      <glyph glyph-name="uni56" unicode="&#x56;" d="M410 706L277 0L146 0L6 706L144 706L213 239L277 706L410 706Z"  horiz-adv-x="417" vert-adv-y="1000"  />

      
      <glyph glyph-name="uni57" unicode="&#x57;" d="M697 706L561 0L424 0L356 482L280 0L141 0L12 706L147 706L218 174L294 706L417 706L491 174L565 706L697 706Z"  horiz-adv-x="708" vert-adv-y="1000"  />

      
      <glyph glyph-name="uni58" unicode="&#x58;" d="M465 0L322 0L239 245L155 0L14 0L170 376L31 706L173 706L240 507L308 706L450 706L309 372L465 0Z"  horiz-adv-x="479" vert-adv-y="1000"  />

      
      <glyph glyph-name="uni59" unicode="&#x59;" d="M416 706L275 209L275 0L142 0L142 218L1 706L138 706L210 350L279 706L416 706Z"  horiz-adv-x="417" vert-adv-y="1000"  />

      
      <glyph glyph-name="uni5a" unicode="&#x5a;" d="M396 636L165 110L392 110L392 0L23 0L23 82L248 597L52 597L52 706L396 706L396 636Z"  horiz-adv-x="417" vert-adv-y="1000"  />

      
      <glyph glyph-name="uni5b" unicode="&#x5b;" d="M291-172L50-172L50 759L290 759L290 670L168 670L168-82L291-82L291-172Z"  horiz-adv-x="333" vert-adv-y="1000"  />

      
      <glyph glyph-name="uni5c" unicode="&#x5c;" d="M240 0L142 0L12 706L111 706L240 0Z"  horiz-adv-x="250" vert-adv-y="1000"  />

      
      <glyph glyph-name="uni5d" unicode="&#x5d;" d="M284-172L44-172L44-82L166-82L166 670L43 670L43 759L284 759L284-172Z"  horiz-adv-x="333" vert-adv-y="1000"  />

      
      <glyph glyph-name="uni5e" unicode="&#x5e;" d="M508 358L386 358L281 600L174 358L51 358L225 706L335 706L508 358Z"  horiz-adv-x="559" vert-adv-y="1000"  />

      
      <glyph glyph-name="uni5f" unicode="&#x5f;" d="M510-221L-10-221L-10-129L510-129L510-221Z"  horiz-adv-x="500" vert-adv-y="1000"  />

      
      <glyph glyph-name="uni60" unicode="&#x60;" d="M235 574L148 574L15 706L168 706L235 574Z"  horiz-adv-x="250" vert-adv-y="1000"  />

      
      <glyph glyph-name="uni61" unicode="&#x61;" d="M375 0L250 0Q237 16 236 45Q234 43 225.50 33.50Q217 24 213 20.50Q209 17 199.50 9.50Q190 2 181.50-1.50Q173-5 160-8Q147-11 133-11Q101-11 80 0Q59 11 49 31.50Q39 52 35.50 74Q32 96 32 125L32 160Q32 216 48 240.50Q64 265 110 288L234 350L234 389Q234 419 224.50 430Q215 441 192 441Q166 441 158.50 426.50Q151 412 151 373L151 354L42 354L42 412Q42 423 43.50 433Q45 443 54 461Q63 479 78 491.50Q93 504 125 513.50Q157 523 200 523Q210 523 221 522.50Q232 522 257.50 515.50Q283 509 302 498.50Q321 488 336.50 465Q352 442 352 410L352 99Q352 17 375 0M233 108L233 258L175 220Q158 208 153 191.50Q148 175 148 135Q148 105 154 92Q160 79 176 79Q199 79 233 108Z"  horiz-adv-x="396" vert-adv-y="1000"  />

      
      <glyph glyph-name="uni62" unicode="&#x62;" d="M44 706L163 706L163 472Q222 522 270 522Q312 522 345 491Q378 460 378 411L378 113Q378 54 348 21.50Q318-11 268-11Q255-11 239.50-7.50Q224-4 200.50 10Q177 24 163 47L163 0L44 0L44 706M258 158L258 373Q258 431 214 431Q196 431 184.50 425Q173 419 168.50 407Q164 395 163 386.50Q162 378 162 365L162 158Q162 137 164.50 124.50Q167 112 178.50 101Q190 90 211 90Q258 90 258 158Z"  horiz-adv-x="417" vert-adv-y="1000"  />

      
      <glyph glyph-name="uni63" unicode="&#x63;" d="M249 203L367 203L367 145Q367 71 326.50 30.50Q286-10 205-10Q38-10 38 137L38 372Q38 444 84.50 483Q131 522 205 522Q232 522 257 516.50Q282 511 308.50 497.50Q335 484 351 455.50Q367 427 367 387L367 318L249 318L249 380Q249 437 205 437Q178 437 167 420Q156 403 156 368L156 145Q156 78 203 78Q249 78 249 144L249 203Z"  horiz-adv-x="396" vert-adv-y="1000"  />

      
      <glyph glyph-name="uni64" unicode="&#x64;" d="M372 0L253 0L253 50Q252 49 247 42Q242 35 239 31Q236 27 229.50 20Q223 13 216 8.50Q209 4 199.50-0.50Q190-5 178.50-7.50Q167-10 154-10Q97-10 68 24Q39 58 39 118L39 405Q39 447 66 485Q93 523 150 523Q197 523 253 471L253 706L372 706L372 0M157 366L157 148Q157 135 158 128Q159 121 162.50 110.50Q166 100 176.50 95Q187 90 203 90Q253 90 253 152L253 372Q253 431 203 431Q187 431 176.50 425Q166 419 162.50 407Q159 395 158 387Q157 379 157 366Z"  horiz-adv-x="417" vert-adv-y="1000"  />

      
      <glyph glyph-name="uni65" unicode="&#x65;" d="M360 230L157 230L157 140Q157 83 201 83Q227 83 235 101Q243 119 243 152L243 169L358 169L358 127Q358-10 201-10Q38-10 38 155L38 371Q38 442 81.50 482Q125 522 202 522Q275 522 317.50 485Q360 448 360 385L360 230M242 314L242 377Q242 428 201 428Q157 428 157 377L157 314L242 314Z"  horiz-adv-x="396" vert-adv-y="1000"  />

      
      <glyph glyph-name="uni66" unicode="&#x66;" d="M184 512L236 512L236 433L183 433L183 0L64 0L64 433L11 433L11 512L65 512L65 591Q65 661 97 684.50Q129 708 196 708Q213 708 241 706L241 608Q219 610 215 610Q184 610 184 575L184 512Z"  horiz-adv-x="250" vert-adv-y="1000"  />

      
      <glyph glyph-name="uni67" unicode="&#x67;" d="M372 512L372-20Q372-97 335-139.50Q298-182 198-182Q119-182 80-150Q41-118 41-42L159-42Q159-96 205-96Q253-96 253-35L253 44Q209-6 149-6Q38-6 38 118L38 389Q38 522 147 522Q199 522 253 471L253 512L372 512M156 371L156 142Q156 85 203 85Q252 85 252 143L252 369Q252 386 250.50 396.50Q249 407 237.50 419.50Q226 432 204 432Q156 432 156 371Z"  horiz-adv-x="417" vert-adv-y="1000"  />

      
      <glyph glyph-name="uni68" unicode="&#x68;" d="M372 0L254 0L254 364Q254 395 245.50 411Q237 427 210 427Q163 427 163 371L163 0L44 0L44 706L161 706L161 471Q208 522 266 522Q317 522 344.50 488Q372 454 372 401L372 0Z"  horiz-adv-x="417" vert-adv-y="1000"  />

      
      <glyph glyph-name="uni69" unicode="&#x69;" d="M164 586L44 586L44 706L164 706L164 586M164 0L44 0L44 512L164 512L164 0Z"  horiz-adv-x="208" vert-adv-y="1000"  />

      
      <glyph glyph-name="uni6a" unicode="&#x6a;" d="M164 587L45 587L45 706L164 706L164 587M164 512L164-48Q164-75 160.50-94Q157-113 145.50-134Q134-155 107.50-166Q81-177 41-177Q14-177-8-174L-8-74Q27-74 36-62.50Q45-51 45-14L45 512L164 512Z"  horiz-adv-x="208" vert-adv-y="1000"  />

      
      <glyph glyph-name="uni6b" unicode="&#x6b;" d="M406 0L272 0L162 261L162 0L44 0L44 706L162 706L162 337L260 512L392 512L261 299L406 0Z"  horiz-adv-x="396" vert-adv-y="1000"  />

      
      <glyph glyph-name="uni6c" unicode="&#x6c;" d="M164 0L44 0L44 706L164 706L164 0Z"  horiz-adv-x="208" vert-adv-y="1000"  />

      
      <glyph glyph-name="uni6d" unicode="&#x6d;" d="M581 0L462 0L462 379Q462 408 453.50 423Q445 438 419 438Q372 438 372 373L372 0L253 0L253 380Q253 440 209 440Q163 440 163 379L163 0L44 0L44 512L164 512L164 478Q212 522 265 522Q321 522 361 471Q415 522 478 522Q527 522 554 491.50Q581 461 581 411L581 0Z"  horiz-adv-x="625" vert-adv-y="1000"  />

      
      <glyph glyph-name="uni6e" unicode="&#x6e;" d="M372 0L255 0L255 377Q255 408 246.50 423Q238 438 214 438Q187 438 175 422Q163 406 163 369L163 0L44 0L44 512L164 512L164 475Q190 500 212 511Q234 522 266 522Q319 522 345.50 491Q372 460 372 419L372 0Z"  horiz-adv-x="417" vert-adv-y="1000"  />

      
      <glyph glyph-name="uni6f" unicode="&#x6f;" d="M358 382L358 132Q358 59 312.50 24.50Q267-10 193-10Q38-10 38 144L38 374Q38 522 200 522Q358 522 358 382M157 385L157 125Q157 72 198 72Q240 72 240 126L240 386Q240 448 200 448Q180 448 170 436Q160 424 158.50 413.50Q157 403 157 385Z"  horiz-adv-x="396" vert-adv-y="1000"  />

      
      <glyph glyph-name="uni70" unicode="&#x70;" d="M44 512L163 512L163 473Q212 522 270 522Q319 522 348.50 488Q378 454 378 401L378 115Q378 60 352.50 25Q327-10 274-10Q251-10 230.50-2Q210 6 197 15.50Q184 25 163 43L163-177L44-177L44 512M163 374L163 144Q163 87 211 87Q259 87 259 140L259 377Q259 433 212 433Q163 433 163 374Z"  horiz-adv-x="417" vert-adv-y="1000"  />

      
      <glyph glyph-name="uni71" unicode="&#x71;" d="M373-177L255-177L255 43Q221 13 199.50 1Q178-11 145-11Q92-11 65 24.50Q38 60 38 108L38 393Q38 449 69 485.50Q100 522 156 522Q209 522 255 476L255 512L373 512L373-177M157 388L157 143Q157 88 204 88Q222 88 233 94.50Q244 101 248 115Q252 129 253 139.50Q254 150 254 170L254 385Q254 414 238.50 425Q223 436 206 436Q183 436 170 422.50Q157 409 157 388Z"  horiz-adv-x="417" vert-adv-y="1000"  />

      
      <glyph glyph-name="uni72" unicode="&#x72;" d="M279 521L279 403Q261 411 239 411Q192 411 177 381.50Q162 352 162 302L162 0L44 0L44 512L163 512L163 447Q199 521 273 521L279 521Z"  horiz-adv-x="292" vert-adv-y="1000"  />

      
      <glyph glyph-name="uni73" unicode="&#x73;" d="M27 180L137 180L137 136Q137 75 183 75Q230 75 230 131Q230 158 223.50 170Q217 182 195 198L96 268Q35 310 35 391Q35 463 75 492.50Q115 522 189 522Q335 522 335 405L335 348L232 348L232 385Q232 441 188 441Q147 441 147 395Q147 363 181 339L291 262Q320 241 330 215.50Q340 190 340 148Q340 62 306.50 26Q273-10 183-10Q27-10 27 125L27 180Z"  horiz-adv-x="375" vert-adv-y="1000"  />

      
      <glyph glyph-name="uni74" unicode="&#x74;" d="M189 433L189 139Q189 110 201 97.50Q213 85 243 85Q249 85 263 87L263 1Q237-5 202-5Q129-5 100.50 18.50Q72 42 72 101L72 433L7 433L7 512L71 512L71 698L189 698L189 512L260 512L260 433L189 433Z"  horiz-adv-x="271" vert-adv-y="1000"  />

      
      <glyph glyph-name="uni75" unicode="&#x75;" d="M373 0L253 0L253 42Q198-9 144-9Q44-9 44 107L44 512L163 512L163 144Q163 114 171 98Q179 82 207 82Q235 82 244 99.50Q253 117 253 150L253 512L373 512L373 0Z"  horiz-adv-x="417" vert-adv-y="1000"  />

      
      <glyph glyph-name="uni76" unicode="&#x76;" d="M353 512L230 0L114 0L1 512L120 512L173 157L234 512L353 512Z"  horiz-adv-x="354" vert-adv-y="1000"  />

      
      <glyph glyph-name="uni77" unicode="&#x77;" d="M559 512L443 0L331 0L281 304L221 0L108 0L4 512L120 512L174 174L234 512L331 512L385 174L443 512L559 512Z"  horiz-adv-x="562" vert-adv-y="1000"  />

      
      <glyph glyph-name="uni78" unicode="&#x78;" d="M371 0L243 0L185 207L127 0L4 0L115 278L25 512L148 512L192 341L238 512L353 512L261 278L371 0Z"  horiz-adv-x="375" vert-adv-y="1000"  />

      
      <glyph glyph-name="uni79" unicode="&#x79;" d="M236 512L353 512L236-37Q221-109 196-140Q165-177 93-177Q70-177 16-168L34-74Q62-81 79-81Q106-81 118.50-60Q131-39 133-14L134 0L1 512L119 512L185 183L236 512Z"  horiz-adv-x="354" vert-adv-y="1000"  />

      
      <glyph glyph-name="uni7a" unicode="&#x7a;" d="M333 0L24 0L24 100L203 416L43 416L43 512L325 512L325 416L148 100L333 100L333 0Z"  horiz-adv-x="354" vert-adv-y="1000"  />

      
      <glyph glyph-name="uni7b" unicode="&#x7b;" d="M336-182L312-182Q209-182 166-144.50Q123-107 123-2L123 103Q123 129 122.50 142Q122 155 120 176Q118 197 112.50 208Q107 219 98 231.50Q89 244 74 250Q59 256 38 257L38 335Q70 339 84 348Q123 373 123 470L123 596Q123 696 164 735Q205 774 312 774L336 774L336 699Q277 698 257 676.50Q237 655 237 587L237 480Q237 442 234.50 417.50Q232 393 222.50 365Q213 337 192 320Q171 303 137 298L137 293Q169 288 190 272.50Q211 257 220.50 232Q230 207 233.50 183.50Q237 160 237 128L237 6Q237-64 256-84.50Q275-105 336-107L336-182Z"  horiz-adv-x="354" vert-adv-y="1000"  />

      
      <glyph glyph-name="uni7c" unicode="&#x7c;" d="M160-168L46-168L46 762L160 762L160-168Z"  horiz-adv-x="205" vert-adv-y="1000"  />

      
      <glyph glyph-name="uni7d" unicode="&#x7d;" d="M19 774L43 774Q146 774 189 736.50Q232 699 232 594L232 489Q232 463 232.50 450Q233 437 235 416Q237 395 242.50 384Q248 373 257 360.50Q266 348 281 342Q296 336 317 335L317 257Q285 253 271 244Q232 219 232 122L232-4Q232-104 191-143Q150-182 43-182L19-182L19-107Q78-106 98-84.50Q118-63 118 5L118 112Q118 150 120.50 174.50Q123 199 132.50 227Q142 255 163 272Q184 289 218 294L218 299Q186 304 165 319.50Q144 335 134.50 360Q125 385 121.50 408.50Q118 432 118 464L118 586Q118 656 99 676.50Q80 697 19 699L19 774Z"  horiz-adv-x="354" vert-adv-y="1000"  />

      
      <glyph glyph-name="uni7e" unicode="&#x7e;" d="M448 386L507 298Q448 222 382 222Q341 222 288 245L262 256Q217 275 192 275Q168 275 152 263Q136 251 114 220L56 309Q90 351 120 368Q150 385 187 385Q214 385 261 367L312 347Q351 332 368 332Q390 332 408 344Q426 356 448 386Z"  horiz-adv-x="563" vert-adv-y="1000"  />

      
      <glyph glyph-name="unia1" unicode="&#xa1;" d="M154 574L35 574L35 706L154 706L154 574M151 0L38 0L38 313L57 516L135 516L151 319L151 0Z"  horiz-adv-x="229" vert-adv-y="1000"  />

      
      <glyph glyph-name="unia2" unicode="&#xa2;" d="M367 317L249 317L249 382Q249 435 204 435Q156 435 156 377L156 137Q156 78 203 78Q216 78 225.50 82Q235 86 239.50 91.50Q244 97 246 106Q248 115 248.50 120.50Q249 126 249 136L249 203L366 203L366 137Q366-2 230-12L230-111L180-111L180-12Q39 4 39 136L39 378Q39 421 54 451Q69 481 95.50 494.50Q122 508 139.50 513Q157 518 180 521L180 604L230 604L230 521Q254 519 270.50 514.50Q287 510 312.50 497.50Q338 485 352.50 455.50Q367 426 367 383L367 317Z"  horiz-adv-x="396" vert-adv-y="1000"  />

      
      <glyph glyph-name="unia3" unicode="&#xa3;" d="M457 197L457 122Q457 99 452.50 78.50Q448 58 437 36Q426 14 402 1Q378-12 343-12Q288-12 210 39Q164-12 110-12Q76-12 49 9Q22 30 22 72Q22 109 47.50 133Q73 157 110 157Q128 157 185 138Q194 159 194 174Q194 210 157 278L46 278L46 339L132 339Q115 375 107 394Q99 413 90 451.50Q81 490 81 529Q81 616 129.50 659.50Q178 703 256 703Q341 703 386.50 657.50Q432 612 432 530L432 480L317 480L317 522Q317 540 315 552.50Q313 565 308 578.50Q303 592 291 599.50Q279 607 260 607Q199 607 199 518Q199 498 201.50 480.50Q204 463 211 441Q218 419 221 410Q224 401 236.50 372.50Q249 344 251 339L356 339L356 278L272 278Q281 245 281 226Q281 183 251 106Q293 81 314 81Q356 81 356 149L356 197L457 197M149 73Q125 94 105 94Q95 94 87 87Q79 80 79 68Q79 58 86.50 51Q94 44 105 44Q116 44 123.50 49Q131 54 149 73Z"  horiz-adv-x="479" vert-adv-y="1000"  />

      
      <glyph glyph-name="unia4" unicode="&#xa4;" d="M632 105L551 22L474 103Q401 58 329 58Q253 58 182 104L106 24L26 107L103 187Q58 254 58 338Q58 419 102 491L27 570L107 653L182 575Q246 620 330 620Q405 620 475 575L552 654L632 570L556 491Q599 417 599 339Q599 257 555 186L632 105M482 337Q482 408 438 457Q394 506 330 506Q265 506 220.50 458Q176 410 176 339Q176 269 220.50 221Q265 173 330 173Q393 173 437.50 221Q482 269 482 337Z"  horiz-adv-x="658" vert-adv-y="1000"  />

      
      <glyph glyph-name="unia5" unicode="&#xa5;" d="M404 665L314 351L393 351L393 278L294 278L276 221L393 221L393 150L273 150L273 0L142 0L142 150L22 150L22 221L140 221L124 278L22 278L22 351L103 351L12 665L145 665L209 349L269 665L404 665Z"  horiz-adv-x="417" vert-adv-y="1000"  />

      
      <glyph glyph-name="unia6" unicode="&#xa6;" d="M160 361L46 361L46 762L160 762L160 361M160-168L46-168L46 234L160 234L160-168Z"  horiz-adv-x="205" vert-adv-y="1000"  />

      
      <glyph glyph-name="unia7" unicode="&#xa7;" d="M393 512L279 512L279 571Q279 603 266.50 616.50Q254 630 224 630Q176 630 176 576Q176 565 179 555Q182 545 185.50 538Q189 531 197 522.50Q205 514 209.50 510Q214 506 225 496.50Q236 487 240 484L360 381Q421 330 421 260Q421 215 401.50 183Q382 151 342 110Q373 77 381 52.50Q389 28 389-22Q389-175 217-175Q185-175 157-169Q129-163 102.50-149Q76-135 60.50-107Q45-79 45-39L45 50L161 50L161-22Q161-83 214-83Q266-83 266-29Q266 12 257 27Q248 42 212 73L86 180Q14 241 14 310Q14 351 35 384.50Q56 418 95 457Q71 485 64 503.50Q57 522 57 568Q57 652 101 685Q145 718 225 718Q393 718 393 591L393 512M282 170Q316 209 316 234Q316 252 300 273Q284 294 266 309.50Q248 325 211 354.50Q174 384 154 401Q122 358 122 334Q122 319 127.50 308Q133 297 169.50 263Q206 229 282 170Z"  horiz-adv-x="437" vert-adv-y="1000"  />

      
      <glyph glyph-name="unia8" unicode="&#xa8;" d="M276 595L157 595L157 719L276 719L276 595M93 595L-26 595L-26 719L93 719L93 595Z"  horiz-adv-x="250" vert-adv-y="1000"  />

      
      <glyph glyph-name="unia9" unicode="&#xa9;" d="M442 304L534 304L534 265Q534 187 503.50 154.50Q473 122 401 122Q327 122 293.50 157.50Q260 193 260 277L260 435Q260 519 293.50 554.50Q327 590 401 590Q473 590 503.50 557.50Q534 525 534 448L534 413L442 413L442 453Q442 482 432 494.50Q422 507 399 507Q374 507 363.50 494Q353 481 353 439L353 270Q353 229 365 217.50Q377 206 399 206Q422 206 432 218Q442 230 442 260L442 304M756 354Q756 203 653 100Q550-3 399-3Q251-3 147.50 101Q44 205 44 353Q44 502 148 605.50Q252 709 400 709Q549 709 652.50 606Q756 503 756 354M710 353Q710 486 620 577.50Q530 669 400 669Q272 669 181 576Q90 483 90 352Q90 220 180 128.50Q270 37 399 37Q528 37 619 129Q710 221 710 353Z"  horiz-adv-x="799" vert-adv-y="1000"  />

      
      <glyph glyph-name="uniaa" unicode="&#xaa;" d="M211 420L142 420Q137 430 134 446Q110 417 80 417Q43 417 32.50 438Q22 459 22 494L22 504Q22 542 33.50 558Q45 574 99 599L133 615L133 635Q133 645 132 650Q131 655 126 659.50Q121 664 110 664Q88 664 88 629L88 617L27 617L27 640Q27 713 110 713Q146 713 173 698Q200 683 200 646L200 472Q200 433 211 420M132 482L132 562L103 542Q92 535 89.50 527.50Q87 520 87 502Q87 467 102 467Q114 467 132 482Z"  horiz-adv-x="229" vert-adv-y="1000"  />

      
      <glyph glyph-name="uniab" unicode="&#xab;" d="M278 147L176 241L176 335L278 429L278 332L235 287L278 245L278 147M133 147L31 240L31 332L133 429L133 332L94 287L133 247L133 147Z"  horiz-adv-x="313" vert-adv-y="1000"  />

      
      <glyph glyph-name="uniac" unicode="&#xac;" d="M474 63L354 63L354 249L56 249L56 348L474 348L474 63Z"  horiz-adv-x="559" vert-adv-y="1000"  />

      
      <glyph glyph-name="uniad" unicode="&#xad;" d="M281 242L33 242L33 341L281 341L281 242Z"  horiz-adv-x="314" vert-adv-y="1000"  />

      
      <glyph glyph-name="uniae" unicode="&#xae;" d="M262 579L412 579Q478 579 505.50 558.50Q533 538 533 488L533 443Q533 406 519 385Q505 364 470 355Q508 346 522.50 325.50Q537 305 537 259L537 187Q537 151 558 130L458 130Q444 150 444 183L444 267Q444 299 434.50 309.50Q425 320 397 320L353 320L353 130L262 130L262 579M353 396L397 396Q423 396 433 406.50Q443 417 443 443L443 466Q443 503 401 503L353 503L353 396M756 354Q756 203 653 100Q550-3 399-3Q251-3 147.50 101Q44 205 44 353Q44 502 148 605.50Q252 709 400 709Q549 709 652.50 606Q756 503 756 354M710 353Q710 486 620 577.50Q530 669 400 669Q272 669 181 576Q90 483 90 352Q90 220 180 128.50Q270 37 399 37Q528 37 619 129Q710 221 710 353Z"  horiz-adv-x="799" vert-adv-y="1000"  />

      
      <glyph glyph-name="uniaf" unicode="&#xaf;" d="M269 590L-19 590L-19 671L269 671L269 590Z"  horiz-adv-x="250" vert-adv-y="1000"  />

      
      <glyph glyph-name="unib0" unicode="&#xb0;" d="M338 594Q338 527 291 479.50Q244 432 177 432Q110 432 63 479.50Q16 527 16 594Q16 661 63 708Q110 755 177 755Q245 755 291.50 708.50Q338 662 338 594M233 540Q233 540 244.50 551.50Q256 563 256 596Q256 629 233 652Q210 675 177 675Q144 675 121 652Q98 629 98 596Q98 564 121.50 540.50Q145 517 177 517Q210 517 233 540Z"  horiz-adv-x="354" vert-adv-y="1000"  />

      
      <glyph glyph-name="unib1" unicode="&#xb1;" d="M477 315L340 315L340 158L222 158L222 315L83 315L83 416L222 416L222 573L340 573L340 416L477 416L477 315M477 0L83 0L83 101L477 101L477 0Z"  horiz-adv-x="559" vert-adv-y="1000"  />

      
      <glyph glyph-name="unib2" unicode="&#xb2;" d="M270 224L21 224L21 237Q21 306 43.50 345Q66 384 119 432Q124 437 138 449Q152 461 157.50 466.50Q163 472 171 482Q179 492 182 502.50Q185 513 185 525L185 572Q185 608 149 608Q127 608 116.50 599.50Q106 591 106 569L106 514L30 514L30 570Q30 622 60 646.50Q90 671 142 671Q265 671 265 572L265 517Q265 479 251 458.50Q237 438 173 380Q133 344 122 330Q111 316 111 294L270 294L270 224Z"  horiz-adv-x="292" vert-adv-y="1000"  />

      
      <glyph glyph-name="unib3" unicode="&#xb3;" d="M25 366L106 366L106 325Q106 304 113 292.50Q120 281 144 281Q169 281 177 291Q185 301 185 322L185 382Q185 395 184 402Q183 409 178 416.50Q173 424 161.50 427.50Q150 431 131 431L99 431L99 487L131 487Q154 487 166 495Q178 503 180.50 512.50Q183 522 183 538L183 574Q183 607 144 607Q106 607 106 567L106 530L29 530L29 571Q29 671 148 671Q202 671 233 647Q264 623 264 577L264 535Q264 507 254.50 489Q245 471 213 462Q237 459 249.50 446.50Q262 434 264 421.50Q266 409 266 386L266 320Q266 286 251 263Q236 240 212.50 231.50Q189 223 175 220.50Q161 218 149 218Q25 218 25 328L25 366Z"  horiz-adv-x="292" vert-adv-y="1000"  />

      
      <glyph glyph-name="unib4" unicode="&#xb4;" d="M235 706L102 574L15 574L82 706L235 706Z"  horiz-adv-x="250" vert-adv-y="1000"  />

      
      <glyph glyph-name="unib5" unicode="&#xb5;" d="M253 512L373 512L373 90Q373 19 396 0L259 0L256 42Q235-2 201-2Q181-2 164 14L164-177L44-177L44 512L164 512L164 128Q164 82 207 82Q253 82 253 139L253 512Z"  horiz-adv-x="417" vert-adv-y="1000"  />

      
      <glyph glyph-name="unib6" unicode="&#xb6;" d="M503 627L467 627L467-167L382-167L382 627L291 627L291-167L206-167L206 301Q178 309 166 314Q118 335 90.50 383.50Q63 432 63 496Q63 594 122 651Q153 682 189.50 694Q226 706 292 706L503 706L503 627Z"  horiz-adv-x="597" vert-adv-y="1000"  />

      
      <glyph glyph-name="unib7" unicode="&#xb7;" d="M152 226L35 226L35 356L152 356L152 226Z"  horiz-adv-x="187" vert-adv-y="1000"  />

      
      <glyph glyph-name="unib8" unicode="&#xb8;" d="M75 23L119 23L119-56L129-56Q143-56 157-58.50Q171-61 187.50-67.50Q204-74 214.50-88.50Q225-103 225-124Q225-158 196-178Q169-196 110-196Q75-196 25-186L25-156Q52-159 64-159Q89-159 100-150.50Q111-142 111-131Q111-118 102.50-110.50Q94-103 87-101.50Q80-100 75-100L75 23Z"  horiz-adv-x="250" vert-adv-y="1000"  />

      
      <glyph glyph-name="unib9" unicode="&#xb9;" d="M199 224L118 224L118 556Q85 536 40 529L40 595Q81 607 100.50 621.50Q120 636 145 665L199 665L199 224Z"  horiz-adv-x="292" vert-adv-y="1000"  />

      
      <glyph glyph-name="uniba" unicode="&#xba;" d="M25 504L25 631Q25 712 117 712Q204 712 204 629L204 499Q204 453 177 435Q150 417 114 417Q25 417 25 504M136 497L136 635Q136 670 114 670Q93 670 93 636L93 498Q93 465 114 465Q136 465 136 497Z"  horiz-adv-x="229" vert-adv-y="1000"  />

      
      <glyph glyph-name="unibb" unicode="&#xbb;" d="M281 244L179 147L179 244L219 289L179 329L179 429L281 336L281 244M137 241L34 147L34 244L77 289L34 331L34 429L137 335L137 241Z"  horiz-adv-x="313" vert-adv-y="1000"  />

      
      <glyph glyph-name="unibc" unicode="&#xbc;" d="M686 83L659 83L659 0L584 0L584 83L437 83L437 147L564 441L659 441L659 149L686 149L686 83M519 692L254-45L190-23L456 715L519 692M588 348L507 149L584 149L588 348M199 224L118 224L118 556Q85 536 40 529L40 595Q81 607 100.50 621.50Q120 636 145 665L199 665L199 224Z"  horiz-adv-x="708" vert-adv-y="1000"  />

      
      <glyph glyph-name="unibd" unicode="&#xbd;" d="M686 0L437 0L437 13Q437 82 459.50 121Q482 160 535 208Q540 213 554 225Q568 237 573.50 242.50Q579 248 587 258Q595 268 598 278.50Q601 289 601 301L601 348Q601 384 565 384Q543 384 532.50 375.50Q522 367 522 345L522 290L446 290L446 346Q446 398 476 422.50Q506 447 558 447Q681 447 681 348L681 293Q681 255 667 234.50Q653 214 589 156Q549 120 538 106Q527 92 527 70L686 70L686 0M502 692L236-45L173-23L437 715L502 692M199 224L118 224L118 556Q85 536 40 529L40 595Q81 607 100.50 621.50Q120 636 145 665L199 665L199 224Z"  horiz-adv-x="708" vert-adv-y="1000"  />

      
      <glyph glyph-name="unibe" unicode="&#xbe;" d="M546 692L280-45L217-23L482 715L546 692M25 366L106 366L106 325Q106 304 113 292.50Q120 281 144 281Q169 281 177 291Q185 301 185 322L185 382Q185 395 184 402Q183 409 178 416.50Q173 424 161.50 427.50Q150 431 131 431L99 431L99 487L131 487Q154 487 166 495Q178 503 180.50 512.50Q183 522 183 538L183 574Q183 607 144 607Q106 607 106 567L106 530L29 530L29 571Q29 671 148 671Q202 671 233 647Q264 623 264 577L264 535Q264 507 254.50 489Q245 471 213 462Q237 459 249.50 446.50Q262 434 264 421.50Q266 409 266 386L266 320Q266 286 251 263Q236 240 212.50 231.50Q189 223 175 220.50Q161 218 149 218Q25 218 25 328L25 366M686 83L659 83L659 0L584 0L584 83L437 83L437 147L564 441L659 441L659 149L686 149L686 83M507 149L584 149L588 348L507 149Z"  horiz-adv-x="708" vert-adv-y="1000"  />

      
      <glyph glyph-name="unibf" unicode="&#xbf;" d="M161 516L274 516L274 481Q274 438 267.50 419Q261 400 240 368L174 266Q172 263 167 255.50Q162 248 160.50 245.50Q159 243 156 236.50Q153 230 151.50 226Q150 222 148.50 215Q147 208 146.50 200.50Q146 193 146 184L146 121Q146 72 191 72Q240 72 240 126L240 243L351 243L351 169Q351 137 349.50 117Q348 97 338.50 70Q329 43 312.50 28Q296 13 263.50 2Q231-9 185-9Q110-9 69 21.50Q28 52 28 133L28 185Q28 247 50 279L118 378Q147 420 154 440Q161 460 161 494L161 516M158 706L274 706L274 576L158 576L158 706Z"  horiz-adv-x="417" vert-adv-y="1000"  />

      
      <glyph glyph-name="unic0" unicode="&#xc0;" d="M428 0L296 0L279 115L159 115L140 0L10 0L147 706L296 706L428 0M265 224L222 527L175 224L265 224M283 762L197 762L63 895L217 895L283 762Z"  horiz-adv-x="437" vert-adv-y="1000"  />

      
      <glyph glyph-name="unic1" unicode="&#xc1;" d="M428 0L296 0L279 115L159 115L140 0L10 0L147 706L296 706L428 0M265 224L222 527L175 224L265 224M375 897L249 763L156 763L220 897L375 897Z"  horiz-adv-x="437" vert-adv-y="1000"  />

      
      <glyph glyph-name="unic2" unicode="&#xc2;" d="M428 0L296 0L279 115L159 115L140 0L10 0L147 706L296 706L428 0M265 224L222 527L175 224L265 224M367 762L263 762L219 835L171 762L66 762L152 895L281 895L367 762Z"  horiz-adv-x="437" vert-adv-y="1000"  />

      
      <glyph glyph-name="unic3" unicode="&#xc3;" d="M428 0L296 0L279 115L159 115L140 0L10 0L147 706L296 706L428 0M265 224L222 527L175 224L265 224M319 887L379 887Q379 758 299 758Q275 758 226.50 780Q178 802 166 802Q133 802 126 761L65 761Q65 814 88 851.50Q111 889 158 889Q185 889 230.50 867.50Q276 846 289 846Q312 846 319 887Z"  horiz-adv-x="437" vert-adv-y="1000"  />

      
      <glyph glyph-name="unic4" unicode="&#xc4;" d="M428 0L296 0L279 115L159 115L140 0L10 0L147 706L296 706L428 0M265 224L222 527L175 224L265 224M386 762L270 762L270 883L386 883L386 762M185 762L68 762L68 883L185 883L185 762Z"  horiz-adv-x="437" vert-adv-y="1000"  />

      
      <glyph glyph-name="unic5" unicode="&#xc5;" d="M428 0L296 0L279 115L159 115L140 0L10 0L147 706L296 706L428 0M265 224L222 527L175 224L265 224M289 892.50Q289 892.50 302 879.25Q315 866 315 829Q315 792 289 766Q263 740 226 740Q189 740 162.50 766.50Q136 793 136 830Q136 867 162.50 893Q189 919 226 919Q263 919 289 892.50M266 828Q266 843 255 856Q244 869 225 869Q208 869 196 857Q184 845 184 828Q184 811 196.50 799Q209 787 226 787Q242 787 254 799Q266 811 266 828Z"  horiz-adv-x="437" vert-adv-y="1000"  />

      
      <glyph glyph-name="unic6" unicode="&#xc6;" d="M686 0L330 0L330 146L192 146L143 0L3 0L265 706L685 706L685 597L460 597L460 434L672 434L672 328L460 328L460 109L686 109L686 0M330 253L330 553L228 253L330 253Z"  horiz-adv-x="708" vert-adv-y="1000"  />

      
      <glyph glyph-name="unic7" unicode="&#xc7;" d="M302 265L430 265L430 148Q430-6 256-14L256-56L267-56Q281-56 295-58.50Q309-61 325.50-67.50Q342-74 352.50-88.50Q363-103 363-124Q363-158 334-178Q307-196 248-196Q213-196 163-186L163-156Q190-159 202-159Q227-159 238-150.50Q249-142 249-131Q249-118 240.50-110.50Q232-103 225-101.50Q218-100 213-100L213-13Q45 1 45 134L45 550Q45 635 92 678Q139 721 242 721Q328 721 379 685.50Q430 650 430 580L430 449L302 449L302 538Q302 582 289 601.50Q276 621 235 621Q200 621 187.50 601.50Q175 582 175 544L175 166Q175 127 188.50 106.50Q202 86 239 86Q279 86 290.50 106Q302 126 302 173L302 265Z"  horiz-adv-x="458" vert-adv-y="1000"  />

      
      <glyph glyph-name="unic8" unicode="&#xc8;" d="M402 0L50 0L50 706L392 706L392 599L180 599L180 433L380 433L380 326L180 326L180 109L402 109L402 0M273 762L187 762L53 895L207 895L273 762Z"  horiz-adv-x="417" vert-adv-y="1000"  />

      
      <glyph glyph-name="unic9" unicode="&#xc9;" d="M402 0L50 0L50 706L392 706L392 599L180 599L180 433L380 433L380 326L180 326L180 109L402 109L402 0M365 897L239 763L146 763L210 897L365 897Z"  horiz-adv-x="417" vert-adv-y="1000"  />

      
      <glyph glyph-name="unica" unicode="&#xca;" d="M402 0L50 0L50 706L392 706L392 599L180 599L180 433L380 433L380 326L180 326L180 109L402 109L402 0M356 762L252 762L208 835L160 762L55 762L141 895L270 895L356 762Z"  horiz-adv-x="417" vert-adv-y="1000"  />

      
      <glyph glyph-name="unicb" unicode="&#xcb;" d="M402 0L50 0L50 706L392 706L392 599L180 599L180 433L380 433L380 326L180 326L180 109L402 109L402 0M379 762L263 762L263 883L379 883L379 762M178 762L61 762L61 883L178 883L178 762Z"  horiz-adv-x="417" vert-adv-y="1000"  />

      
      <glyph glyph-name="unicc" unicode="&#xcc;" d="M179 0L50 0L50 706L179 706L179 0M179 762L93 762L-41 895L113 895L179 762Z"  horiz-adv-x="229" vert-adv-y="1000"  />

      
      <glyph glyph-name="unicd" unicode="&#xcd;" d="M179 0L50 0L50 706L179 706L179 0M268 897L142 763L49 763L113 897L268 897Z"  horiz-adv-x="229" vert-adv-y="1000"  />

      
      <glyph glyph-name="unice" unicode="&#xce;" d="M179 0L50 0L50 706L179 706L179 0M263 762L159 762L115 835L67 762L-38 762L48 895L177 895L263 762Z"  horiz-adv-x="229" vert-adv-y="1000"  />

      
      <glyph glyph-name="unicf" unicode="&#xcf;" d="M179 0L50 0L50 706L179 706L179 0M276 762L160 762L160 883L276 883L276 762M75 762L-42 762L-42 883L75 883L75 762Z"  horiz-adv-x="229" vert-adv-y="1000"  />

      
      <glyph glyph-name="unid0" unicode="&#xd0;" d="M180 603L180 406L257 406L257 334L180 334L180 103L226 103Q273 103 290.50 117.50Q308 132 308 179L308 531Q308 572 293.50 587.50Q279 603 238 603L180 603M50 407L50 706L260 706Q289 706 306 704.50Q323 703 349.50 692.50Q376 682 396 662Q438 619 438 520L438 190Q438 147 432.50 118Q427 89 410.50 59.50Q394 30 356 15Q318 0 259 0L50 0L50 334L0 334L0 407L50 407Z"  horiz-adv-x="479" vert-adv-y="1000"  />

      
      <glyph glyph-name="unid1" unicode="&#xd1;" d="M450 0L286 0L161 529Q167 202 172 0L50 0L50 706L217 706L344 188Q333 616 331 706L450 706L450 0M350 887L410 887Q410 758 330 758Q306 758 257.50 780Q209 802 197 802Q164 802 157 761L96 761Q96 814 119 851.50Q142 889 189 889Q216 889 261.50 867.50Q307 846 320 846Q343 846 350 887Z"  horiz-adv-x="500" vert-adv-y="1000"  />

      
      <glyph glyph-name="unid2" unicode="&#xd2;" d="M44 148L44 547Q44 631 89 676Q134 721 242 721Q333 721 384 680.50Q435 640 435 559L435 150Q435-15 241-15Q44-15 44 148M304 170L304 534Q304 553 303 564Q302 575 296.50 591Q291 607 277 614.50Q263 622 241 622Q222 622 208.50 615.50Q195 609 188.50 601Q182 593 178.50 578Q175 563 174.50 554Q174 545 174 529L174 173Q174 147 176.50 131.50Q179 116 194.50 101.50Q210 87 240 87Q263 87 277 94.50Q291 102 296.50 117Q302 132 303 142Q304 152 304 170M304 762L218 762L84 895L238 895L304 762Z"  horiz-adv-x="479" vert-adv-y="1000"  />

      
      <glyph glyph-name="unid3" unicode="&#xd3;" d="M44 148L44 547Q44 631 89 676Q134 721 242 721Q333 721 384 680.50Q435 640 435 559L435 150Q435-15 241-15Q44-15 44 148M304 170L304 534Q304 553 303 564Q302 575 296.50 591Q291 607 277 614.50Q263 622 241 622Q222 622 208.50 615.50Q195 609 188.50 601Q182 593 178.50 578Q175 563 174.50 554Q174 545 174 529L174 173Q174 147 176.50 131.50Q179 116 194.50 101.50Q210 87 240 87Q263 87 277 94.50Q291 102 296.50 117Q302 132 303 142Q304 152 304 170M386 897L260 763L167 763L231 897L386 897Z"  horiz-adv-x="479" vert-adv-y="1000"  />

      
      <glyph glyph-name="unid4" unicode="&#xd4;" d="M44 148L44 547Q44 631 89 676Q134 721 242 721Q333 721 384 680.50Q435 640 435 559L435 150Q435-15 241-15Q44-15 44 148M304 170L304 534Q304 553 303 564Q302 575 296.50 591Q291 607 277 614.50Q263 622 241 622Q222 622 208.50 615.50Q195 609 188.50 601Q182 593 178.50 578Q175 563 174.50 554Q174 545 174 529L174 173Q174 147 176.50 131.50Q179 116 194.50 101.50Q210 87 240 87Q263 87 277 94.50Q291 102 296.50 117Q302 132 303 142Q304 152 304 170M388 762L284 762L240 835L192 762L87 762L173 895L302 895L388 762Z"  horiz-adv-x="479" vert-adv-y="1000"  />

      
      <glyph glyph-name="unid5" unicode="&#xd5;" d="M44 148L44 547Q44 631 89 676Q134 721 242 721Q333 721 384 680.50Q435 640 435 559L435 150Q435-15 241-15Q44-15 44 148M304 170L304 534Q304 553 303 564Q302 575 296.50 591Q291 607 277 614.50Q263 622 241 622Q222 622 208.50 615.50Q195 609 188.50 601Q182 593 178.50 578Q175 563 174.50 554Q174 545 174 529L174 173Q174 147 176.50 131.50Q179 116 194.50 101.50Q210 87 240 87Q263 87 277 94.50Q291 102 296.50 117Q302 132 303 142Q304 152 304 170M339 887L399 887Q399 758 319 758Q295 758 246.50 780Q198 802 186 802Q153 802 146 761L85 761Q85 814 108 851.50Q131 889 178 889Q205 889 250.50 867.50Q296 846 309 846Q332 846 339 887Z"  horiz-adv-x="479" vert-adv-y="1000"  />

      
      <glyph glyph-name="unid6" unicode="&#xd6;" d="M44 148L44 547Q44 631 89 676Q134 721 242 721Q333 721 384 680.50Q435 640 435 559L435 150Q435-15 241-15Q44-15 44 148M304 170L304 534Q304 553 303 564Q302 575 296.50 591Q291 607 277 614.50Q263 622 241 622Q222 622 208.50 615.50Q195 609 188.50 601Q182 593 178.50 578Q175 563 174.50 554Q174 545 174 529L174 173Q174 147 176.50 131.50Q179 116 194.50 101.50Q210 87 240 87Q263 87 277 94.50Q291 102 296.50 117Q302 132 303 142Q304 152 304 170M401 762L285 762L285 883L401 883L401 762M200 762L83 762L83 883L200 883L200 762Z"  horiz-adv-x="479" vert-adv-y="1000"  />

      
      <glyph glyph-name="unid7" unicode="&#xd7;" d="M464 197L386 114L280 222L173 115L95 190L202 297L95 404L175 485L280 379L387 485L463 409L358 303L464 197Z"  horiz-adv-x="558" vert-adv-y="1000"  />

      
      <glyph glyph-name="unid8" unicode="&#xd8;" d="M447 692L414 628Q433 590 433 556L433 153Q433 81 388.50 33Q344-15 247-15Q168-15 112 28L92-11L33 20L65 82Q46 114 46 158L46 561Q46 627 94 674Q142 721 233 721Q315 721 370 683L389 721L447 692M178 532L178 304L303 545Q303 557 302.50 564Q302 571 299 583Q296 595 290.50 601.50Q285 608 273 613.50Q261 619 244 619Q213 619 197.50 603.50Q182 588 180 573.50Q178 559 178 532M303 402L178 161Q178 146 179 137Q180 128 185 115Q190 102 203.50 95.50Q217 89 238 89Q261 89 275 96.50Q289 104 294.50 118Q300 132 301.50 142.50Q303 153 303 170L303 402Z"  horiz-adv-x="479" vert-adv-y="1000"  />

      
      <glyph glyph-name="unid9" unicode="&#xd9;" d="M48 706L179 706L179 181Q179 139 190 117.50Q201 96 240 96Q261 96 274 103Q287 110 292 124Q297 138 298.50 150Q300 162 300 182L300 706L431 706L431 159Q431-15 236-15Q145-15 96.50 30Q48 75 48 162L48 706M304 762L218 762L84 895L238 895L304 762Z"  horiz-adv-x="479" vert-adv-y="1000"  />

      
      <glyph glyph-name="unida" unicode="&#xda;" d="M48 706L179 706L179 181Q179 139 190 117.50Q201 96 240 96Q261 96 274 103Q287 110 292 124Q297 138 298.50 150Q300 162 300 182L300 706L431 706L431 159Q431-15 236-15Q145-15 96.50 30Q48 75 48 162L48 706M396 897L270 763L177 763L241 897L396 897Z"  horiz-adv-x="479" vert-adv-y="1000"  />

      
      <glyph glyph-name="unidb" unicode="&#xdb;" d="M48 706L179 706L179 181Q179 139 190 117.50Q201 96 240 96Q261 96 274 103Q287 110 292 124Q297 138 298.50 150Q300 162 300 182L300 706L431 706L431 159Q431-15 236-15Q145-15 96.50 30Q48 75 48 162L48 706M388 762L284 762L240 835L192 762L87 762L173 895L302 895L388 762Z"  horiz-adv-x="479" vert-adv-y="1000"  />

      
      <glyph glyph-name="unidc" unicode="&#xdc;" d="M48 706L179 706L179 181Q179 139 190 117.50Q201 96 240 96Q261 96 274 103Q287 110 292 124Q297 138 298.50 150Q300 162 300 182L300 706L431 706L431 159Q431-15 236-15Q145-15 96.50 30Q48 75 48 162L48 706M402 762L286 762L286 883L402 883L402 762M201 762L84 762L84 883L201 883L201 762Z"  horiz-adv-x="479" vert-adv-y="1000"  />

      
      <glyph glyph-name="unidd" unicode="&#xdd;" d="M416 706L275 209L275 0L142 0L142 218L1 706L138 706L210 350L279 706L416 706M365 897L239 763L146 763L210 897L365 897Z"  horiz-adv-x="417" vert-adv-y="1000"  />

      
      <glyph glyph-name="unide" unicode="&#xde;" d="M50 0L50 706L181 706L181 589L312 589Q382 589 406.50 552Q431 515 431 446L431 337Q431 304 429.50 284.50Q428 265 421 241.50Q414 218 401 205.50Q388 193 363.50 184.50Q339 176 303 176L181 176L181 0L50 0M181 484L181 277L252 277Q279 277 291 288Q303 299 303 335L303 431Q303 484 253 484L181 484Z"  horiz-adv-x="458" vert-adv-y="1000"  />

      
      <glyph glyph-name="unidf" unicode="&#xdf;" d="M44 0L44 592Q44 651 75 686Q106 721 199 721Q273 721 316.50 693.50Q360 666 360 593L360 528Q360 472 346.50 457Q333 442 289 433Q344 424 363 405.50Q382 387 382 333L382 113Q382-9 258-9Q233-9 190 0L190 69Q210 67 221 67Q263 67 263 120L263 311Q263 347 251.50 362.50Q240 378 204 378L186 378L186 459L200 459Q232 459 243 469.50Q254 480 254 514L254 587Q254 636 209 636Q180 636 171.50 625.50Q163 615 163 591L163 0L44 0Z"  horiz-adv-x="417" vert-adv-y="1000"  />

      
      <glyph glyph-name="unie0" unicode="&#xe0;" d="M375 0L250 0Q237 16 236 45Q234 43 225.50 33.50Q217 24 213 20.50Q209 17 199.50 9.50Q190 2 181.50-1.50Q173-5 160-8Q147-11 133-11Q101-11 80 0Q59 11 49 31.50Q39 52 35.50 74Q32 96 32 125L32 160Q32 216 48 240.50Q64 265 110 288L234 350L234 389Q234 419 224.50 430Q215 441 192 441Q166 441 158.50 426.50Q151 412 151 373L151 354L42 354L42 412Q42 423 43.50 433Q45 443 54 461Q63 479 78 491.50Q93 504 125 513.50Q157 523 200 523Q210 523 221 522.50Q232 522 257.50 515.50Q283 509 302 498.50Q321 488 336.50 465Q352 442 352 410L352 99Q352 17 375 0M233 108L233 258L175 220Q158 208 153 191.50Q148 175 148 135Q148 105 154 92Q160 79 176 79Q199 79 233 108M263 574L176 574L43 706L196 706L263 574Z"  horiz-adv-x="396" vert-adv-y="1000"  />

      
      <glyph glyph-name="unie1" unicode="&#xe1;" d="M375 0L250 0Q237 16 236 45Q234 43 225.50 33.50Q217 24 213 20.50Q209 17 199.50 9.50Q190 2 181.50-1.50Q173-5 160-8Q147-11 133-11Q101-11 80 0Q59 11 49 31.50Q39 52 35.50 74Q32 96 32 125L32 160Q32 216 48 240.50Q64 265 110 288L234 350L234 389Q234 419 224.50 430Q215 441 192 441Q166 441 158.50 426.50Q151 412 151 373L151 354L42 354L42 412Q42 423 43.50 433Q45 443 54 461Q63 479 78 491.50Q93 504 125 513.50Q157 523 200 523Q210 523 221 522.50Q232 522 257.50 515.50Q283 509 302 498.50Q321 488 336.50 465Q352 442 352 410L352 99Q352 17 375 0M233 108L233 258L175 220Q158 208 153 191.50Q148 175 148 135Q148 105 154 92Q160 79 176 79Q199 79 233 108M344 706L211 574L124 574L191 706L344 706Z"  horiz-adv-x="396" vert-adv-y="1000"  />

      
      <glyph glyph-name="unie2" unicode="&#xe2;" d="M375 0L250 0Q237 16 236 45Q234 43 225.50 33.50Q217 24 213 20.50Q209 17 199.50 9.50Q190 2 181.50-1.50Q173-5 160-8Q147-11 133-11Q101-11 80 0Q59 11 49 31.50Q39 52 35.50 74Q32 96 32 125L32 160Q32 216 48 240.50Q64 265 110 288L234 350L234 389Q234 419 224.50 430Q215 441 192 441Q166 441 158.50 426.50Q151 412 151 373L151 354L42 354L42 412Q42 423 43.50 433Q45 443 54 461Q63 479 78 491.50Q93 504 125 513.50Q157 523 200 523Q210 523 221 522.50Q232 522 257.50 515.50Q283 509 302 498.50Q321 488 336.50 465Q352 442 352 410L352 99Q352 17 375 0M233 108L233 258L175 220Q158 208 153 191.50Q148 175 148 135Q148 105 154 92Q160 79 176 79Q199 79 233 108M347 574L242 574L198 647L150 574L45 574L131 706L260 706L347 574Z"  horiz-adv-x="396" vert-adv-y="1000"  />

      
      <glyph glyph-name="unie3" unicode="&#xe3;" d="M375 0L250 0Q237 16 236 45Q234 43 225.50 33.50Q217 24 213 20.50Q209 17 199.50 9.50Q190 2 181.50-1.50Q173-5 160-8Q147-11 133-11Q101-11 80 0Q59 11 49 31.50Q39 52 35.50 74Q32 96 32 125L32 160Q32 216 48 240.50Q64 265 110 288L234 350L234 389Q234 419 224.50 430Q215 441 192 441Q166 441 158.50 426.50Q151 412 151 373L151 354L42 354L42 412Q42 423 43.50 433Q45 443 54 461Q63 479 78 491.50Q93 504 125 513.50Q157 523 200 523Q210 523 221 522.50Q232 522 257.50 515.50Q283 509 302 498.50Q321 488 336.50 465Q352 442 352 410L352 99Q352 17 375 0M233 108L233 258L175 220Q158 208 153 191.50Q148 175 148 135Q148 105 154 92Q160 79 176 79Q199 79 233 108M295 699L353 699Q353 570 276 570Q251 570 203 591.50Q155 613 146 613Q116 613 109 573L49 573Q49 626 71 663.50Q93 701 139 701Q166 701 208.50 680Q251 659 265 659Q290 659 295 699Z"  horiz-adv-x="396" vert-adv-y="1000"  />

      
      <glyph glyph-name="unie4" unicode="&#xe4;" d="M375 0L250 0Q237 16 236 45Q234 43 225.50 33.50Q217 24 213 20.50Q209 17 199.50 9.50Q190 2 181.50-1.50Q173-5 160-8Q147-11 133-11Q101-11 80 0Q59 11 49 31.50Q39 52 35.50 74Q32 96 32 125L32 160Q32 216 48 240.50Q64 265 110 288L234 350L234 389Q234 419 224.50 430Q215 441 192 441Q166 441 158.50 426.50Q151 412 151 373L151 354L42 354L42 412Q42 423 43.50 433Q45 443 54 461Q63 479 78 491.50Q93 504 125 513.50Q157 523 200 523Q210 523 221 522.50Q232 522 257.50 515.50Q283 509 302 498.50Q321 488 336.50 465Q352 442 352 410L352 99Q352 17 375 0M233 108L233 258L175 220Q158 208 153 191.50Q148 175 148 135Q148 105 154 92Q160 79 176 79Q199 79 233 108M348 595L229 595L229 719L348 719L348 595M165 595L46 595L46 719L165 719L165 595Z"  horiz-adv-x="396" vert-adv-y="1000"  />

      
      <glyph glyph-name="unie5" unicode="&#xe5;" d="M375 0L250 0Q237 16 236 45Q234 43 225.50 33.50Q217 24 213 20.50Q209 17 199.50 9.50Q190 2 181.50-1.50Q173-5 160-8Q147-11 133-11Q101-11 80 0Q59 11 49 31.50Q39 52 35.50 74Q32 96 32 125L32 160Q32 216 48 240.50Q64 265 110 288L234 350L234 389Q234 419 224.50 430Q215 441 192 441Q166 441 158.50 426.50Q151 412 151 373L151 354L42 354L42 412Q42 423 43.50 433Q45 443 54 461Q63 479 78 491.50Q93 504 125 513.50Q157 523 200 523Q210 523 221 522.50Q232 522 257.50 515.50Q283 509 302 498.50Q321 488 336.50 465Q352 442 352 410L352 99Q352 17 375 0M233 108L233 258L175 220Q158 208 153 191.50Q148 175 148 135Q148 105 154 92Q160 79 176 79Q199 79 233 108M292 661Q292 625 265.50 598.50Q239 572 202 572Q165 572 139 598Q113 624 113 661Q113 699 139.50 725Q166 751 202 751Q239 751 265.50 725Q292 699 292 661M231 631Q231 631 237 637Q243 643 243 660Q243 677 231 689Q219 701 202 701Q185 701 173 689Q161 677 161 660Q161 643 173 631Q185 619 202 619Q219 619 231 631Z"  horiz-adv-x="396" vert-adv-y="1000"  />

      
      <glyph glyph-name="unie6" unicode="&#xe6;" d="M570 229L358 229L358 127Q358 82 404 82Q450 82 450 137L450 170L569 170L569 135Q569 70 534.50 30Q500-10 409-10Q371-10 346-1.50Q321 7 285 30Q223-10 157-10Q31-10 31 111L31 158Q31 213 49 241Q67 269 125 293L239 340L239 383Q239 430 195 430Q149 430 149 380L149 349L42 349L42 405Q42 462 79.50 492Q117 522 179 522Q242 522 301 493Q347 522 418 522Q478 522 524 486.50Q570 451 570 378L570 229M358 375L358 309L450 309L450 372Q450 387 448.50 396.50Q447 406 436.50 417Q426 428 405 428Q358 428 358 375M239 108L239 251Q183 227 163.50 209Q144 191 144 147Q144 134 145 126Q146 118 149.50 106Q153 94 162.50 87.50Q172 81 187 81Q215 81 239 108Z"  horiz-adv-x="604" vert-adv-y="1000"  />

      
      <glyph glyph-name="unie7" unicode="&#xe7;" d="M249 203L367 203L367 145Q367 74 330 33.50Q293-7 218-9L218-56L229-56Q243-56 257-58.50Q271-61 287.50-67.50Q304-74 314.50-88.50Q325-103 325-124Q325-158 296-178Q269-196 210-196Q175-196 125-186L125-156Q152-159 164-159Q189-159 200-150.50Q211-142 211-131Q211-118 202.50-110.50Q194-103 187-101.50Q180-100 175-100L175-8Q38 4 38 137L38 372Q38 444 84.50 483Q131 522 205 522Q232 522 257 516.50Q282 511 308.50 497.50Q335 484 351 455.50Q367 427 367 387L367 318L249 318L249 380Q249 437 205 437Q178 437 167 420Q156 403 156 368L156 145Q156 78 203 78Q249 78 249 144L249 203Z"  horiz-adv-x="396" vert-adv-y="1000"  />

      
      <glyph glyph-name="unie8" unicode="&#xe8;" d="M360 230L157 230L157 140Q157 83 201 83Q227 83 235 101Q243 119 243 152L243 169L358 169L358 127Q358-10 201-10Q38-10 38 155L38 371Q38 442 81.50 482Q125 522 202 522Q275 522 317.50 485Q360 448 360 385L360 230M242 314L242 377Q242 428 201 428Q157 428 157 377L157 314L242 314M263 574L176 574L43 706L196 706L263 574Z"  horiz-adv-x="396" vert-adv-y="1000"  />

      
      <glyph glyph-name="unie9" unicode="&#xe9;" d="M360 230L157 230L157 140Q157 83 201 83Q227 83 235 101Q243 119 243 152L243 169L358 169L358 127Q358-10 201-10Q38-10 38 155L38 371Q38 442 81.50 482Q125 522 202 522Q275 522 317.50 485Q360 448 360 385L360 230M242 314L242 377Q242 428 201 428Q157 428 157 377L157 314L242 314M344 706L211 574L124 574L191 706L344 706Z"  horiz-adv-x="396" vert-adv-y="1000"  />

      
      <glyph glyph-name="uniea" unicode="&#xea;" d="M360 230L157 230L157 140Q157 83 201 83Q227 83 235 101Q243 119 243 152L243 169L358 169L358 127Q358-10 201-10Q38-10 38 155L38 371Q38 442 81.50 482Q125 522 202 522Q275 522 317.50 485Q360 448 360 385L360 230M242 314L242 377Q242 428 201 428Q157 428 157 377L157 314L242 314M347 574L242 574L198 647L150 574L45 574L131 706L260 706L347 574Z"  horiz-adv-x="396" vert-adv-y="1000"  />

      
      <glyph glyph-name="unieb" unicode="&#xeb;" d="M360 230L157 230L157 140Q157 83 201 83Q227 83 235 101Q243 119 243 152L243 169L358 169L358 127Q358-10 201-10Q38-10 38 155L38 371Q38 442 81.50 482Q125 522 202 522Q275 522 317.50 485Q360 448 360 385L360 230M242 314L242 377Q242 428 201 428Q157 428 157 377L157 314L242 314M346 595L227 595L227 719L346 719L346 595M163 595L44 595L44 719L163 719L163 595Z"  horiz-adv-x="396" vert-adv-y="1000"  />

      
      <glyph glyph-name="uniec" unicode="&#xec;" d="M164 0L44 0L44 512L164 512L164 0M169 574L82 574L-51 706L102 706L169 574Z"  horiz-adv-x="208" vert-adv-y="1000"  />

      
      <glyph glyph-name="unied" unicode="&#xed;" d="M164 0L44 0L44 512L164 512L164 0M256 706L123 574L36 574L103 706L256 706Z"  horiz-adv-x="208" vert-adv-y="1000"  />

      
      <glyph glyph-name="uniee" unicode="&#xee;" d="M164 0L44 0L44 512L164 512L164 0M253 574L148 574L104 647L56 574L-49 574L37 706L166 706L253 574Z"  horiz-adv-x="208" vert-adv-y="1000"  />

      
      <glyph glyph-name="unief" unicode="&#xef;" d="M164 0L44 0L44 512L164 512L164 0M253 595L134 595L134 719L253 719L253 595M70 595L-49 595L-49 719L70 719L70 595Z"  horiz-adv-x="208" vert-adv-y="1000"  />

      
      <glyph glyph-name="unif0" unicode="&#xf0;" d="M374 635L313 616Q333 579 343.50 538Q354 497 355.50 468.50Q357 440 357 391L357 133Q357 64 315.50 27Q274-10 196-10Q148-10 115 3.50Q82 17 66 41Q50 65 44 89Q38 113 38 144L38 384Q38 453 80.50 488Q123 523 173 523Q218 523 243 490Q231 545 212 583L99 545L76 598L179 633Q149 663 129 679L228 720Q257 694 281 667L351 690L374 635M157 385L157 125Q157 72 198 72Q240 72 240 126L240 386Q240 448 200 448Q180 448 170 436Q160 424 158.50 413.50Q157 403 157 385Z"  horiz-adv-x="396" vert-adv-y="1000"  />

      
      <glyph glyph-name="unif1" unicode="&#xf1;" d="M372 0L255 0L255 377Q255 408 246.50 423Q238 438 214 438Q187 438 175 422Q163 406 163 369L163 0L44 0L44 512L164 512L164 475Q190 500 212 511Q234 522 266 522Q319 522 345.50 491Q372 460 372 419L372 0M306 699L364 699Q364 570 287 570Q262 570 214 591.50Q166 613 157 613Q127 613 120 573L60 573Q60 626 82 663.50Q104 701 150 701Q177 701 219.50 680Q262 659 276 659Q301 659 306 699Z"  horiz-adv-x="417" vert-adv-y="1000"  />

      
      <glyph glyph-name="unif2" unicode="&#xf2;" d="M358 382L358 132Q358 59 312.50 24.50Q267-10 193-10Q38-10 38 144L38 374Q38 522 200 522Q358 522 358 382M157 385L157 125Q157 72 198 72Q240 72 240 126L240 386Q240 448 200 448Q180 448 170 436Q160 424 158.50 413.50Q157 403 157 385M263 574L176 574L43 706L196 706L263 574Z"  horiz-adv-x="396" vert-adv-y="1000"  />

      
      <glyph glyph-name="unif3" unicode="&#xf3;" d="M358 382L358 132Q358 59 312.50 24.50Q267-10 193-10Q38-10 38 144L38 374Q38 522 200 522Q358 522 358 382M157 385L157 125Q157 72 198 72Q240 72 240 126L240 386Q240 448 200 448Q180 448 170 436Q160 424 158.50 413.50Q157 403 157 385M344 706L211 574L124 574L191 706L344 706Z"  horiz-adv-x="396" vert-adv-y="1000"  />

      
      <glyph glyph-name="unif4" unicode="&#xf4;" d="M358 382L358 132Q358 59 312.50 24.50Q267-10 193-10Q38-10 38 144L38 374Q38 522 200 522Q358 522 358 382M157 385L157 125Q157 72 198 72Q240 72 240 126L240 386Q240 448 200 448Q180 448 170 436Q160 424 158.50 413.50Q157 403 157 385M347 574L242 574L198 647L150 574L45 574L131 706L260 706L347 574Z"  horiz-adv-x="396" vert-adv-y="1000"  />

      
      <glyph glyph-name="unif5" unicode="&#xf5;" d="M358 382L358 132Q358 59 312.50 24.50Q267-10 193-10Q38-10 38 144L38 374Q38 522 200 522Q358 522 358 382M157 385L157 125Q157 72 198 72Q240 72 240 126L240 386Q240 448 200 448Q180 448 170 436Q160 424 158.50 413.50Q157 403 157 385M295 699L353 699Q353 570 276 570Q251 570 203 591.50Q155 613 146 613Q116 613 109 573L49 573Q49 626 71 663.50Q93 701 139 701Q166 701 208.50 680Q251 659 265 659Q290 659 295 699Z"  horiz-adv-x="396" vert-adv-y="1000"  />

      
      <glyph glyph-name="unif6" unicode="&#xf6;" d="M358 382L358 132Q358 59 312.50 24.50Q267-10 193-10Q38-10 38 144L38 374Q38 522 200 522Q358 522 358 382M157 385L157 125Q157 72 198 72Q240 72 240 126L240 386Q240 448 200 448Q180 448 170 436Q160 424 158.50 413.50Q157 403 157 385M345 595L226 595L226 719L345 719L345 595M162 595L43 595L43 719L162 719L162 595Z"  horiz-adv-x="396" vert-adv-y="1000"  />

      
      <glyph glyph-name="unif7" unicode="&#xf7;" d="M336 405L224 405L224 533L336 533L336 405M485 248L74 248L74 349L485 349L485 248M336 64L224 64L224 192L336 192L336 64Z"  horiz-adv-x="559" vert-adv-y="1000"  />

      
      <glyph glyph-name="unif8" unicode="&#xf8;" d="M379 501L343 449Q357 425 357 375L357 134Q357 60 314 25Q271-10 207-10Q162-10 137-1.50Q112 7 77 32L49-9L9 16L45 73Q39 90 39 115L39 383Q39 453 81.50 487.50Q124 522 198 522Q257 522 313 489L338 527L379 501M146 379L146 232L248 388Q245 440 200 440Q146 440 146 379M246 299L146 141Q146 122 147.50 111.50Q149 101 160.50 89.50Q172 78 195 78Q246 78 246 134L246 299Z"  horiz-adv-x="396" vert-adv-y="1000"  />

      
      <glyph glyph-name="unif9" unicode="&#xf9;" d="M373 0L253 0L253 42Q198-9 144-9Q44-9 44 107L44 512L163 512L163 144Q163 114 171 98Q179 82 207 82Q235 82 244 99.50Q253 117 253 150L253 512L373 512L373 0M274 574L187 574L54 706L207 706L274 574Z"  horiz-adv-x="417" vert-adv-y="1000"  />

      
      <glyph glyph-name="unifa" unicode="&#xfa;" d="M373 0L253 0L253 42Q198-9 144-9Q44-9 44 107L44 512L163 512L163 144Q163 114 171 98Q179 82 207 82Q235 82 244 99.50Q253 117 253 150L253 512L373 512L373 0M354 706L221 574L134 574L201 706L354 706Z"  horiz-adv-x="417" vert-adv-y="1000"  />

      
      <glyph glyph-name="unifb" unicode="&#xfb;" d="M373 0L253 0L253 42Q198-9 144-9Q44-9 44 107L44 512L163 512L163 144Q163 114 171 98Q179 82 207 82Q235 82 244 99.50Q253 117 253 150L253 512L373 512L373 0M359 574L254 574L210 647L162 574L57 574L143 706L272 706L359 574Z"  horiz-adv-x="417" vert-adv-y="1000"  />

      
      <glyph glyph-name="unifc" unicode="&#xfc;" d="M373 0L253 0L253 42Q198-9 144-9Q44-9 44 107L44 512L163 512L163 144Q163 114 171 98Q179 82 207 82Q235 82 244 99.50Q253 117 253 150L253 512L373 512L373 0M355 595L236 595L236 719L355 719L355 595M172 595L53 595L53 719L172 719L172 595Z"  horiz-adv-x="417" vert-adv-y="1000"  />

      
      <glyph glyph-name="unifd" unicode="&#xfd;" d="M236 512L353 512L236-37Q221-109 196-140Q165-177 93-177Q70-177 16-168L34-74Q62-81 79-81Q106-81 118.50-60Q131-39 133-14L134 0L1 512L119 512L185 183L236 512M341 706L208 574L121 574L188 706L341 706Z"  horiz-adv-x="354" vert-adv-y="1000"  />

      
      <glyph glyph-name="unife" unicode="&#xfe;" d="M44 706L163 706L163 473Q215 522 269 522Q379 522 379 383L379 116Q379 50 348.50 20Q318-10 273-10Q219-10 163 43L163-177L44-177L44 706M163 374L163 144Q163 87 211 87Q259 87 259 140L259 377Q259 433 212 433Q163 433 163 374Z"  horiz-adv-x="417" vert-adv-y="1000"  />

      
      <glyph glyph-name="uniff" unicode="&#xff;" d="M236 512L353 512L236-37Q221-109 196-140Q165-177 93-177Q70-177 16-168L34-74Q62-81 79-81Q106-81 118.50-60Q131-39 133-14L134 0L1 512L119 512L185 183L236 512M325 595L206 595L206 719L325 719L325 595M142 595L23 595L23 719L142 719L142 595Z"  horiz-adv-x="354" vert-adv-y="1000"  />

      
      <glyph glyph-name="uni0100" unicode="&#x0100;" d="M428 0L296 0L279 115L159 115L140 0L10 0L147 706L296 706L428 0M265 224L222 527L175 224L265 224M366 770L78 770L78 851L366 851L366 770Z"  horiz-adv-x="437" vert-adv-y="1000"  />

      
      <glyph glyph-name="uni0101" unicode="&#x0101;" d="M375 0L250 0Q237 16 236 45Q234 43 225.50 33.50Q217 24 213 20.50Q209 17 199.50 9.50Q190 2 181.50-1.50Q173-5 160-8Q147-11 133-11Q101-11 80 0Q59 11 49 31.50Q39 52 35.50 74Q32 96 32 125L32 160Q32 216 48 240.50Q64 265 110 288L234 350L234 389Q234 419 224.50 430Q215 441 192 441Q166 441 158.50 426.50Q151 412 151 373L151 354L42 354L42 412Q42 423 43.50 433Q45 443 54 461Q63 479 78 491.50Q93 504 125 513.50Q157 523 200 523Q210 523 221 522.50Q232 522 257.50 515.50Q283 509 302 498.50Q321 488 336.50 465Q352 442 352 410L352 99Q352 17 375 0M233 108L233 258L175 220Q158 208 153 191.50Q148 175 148 135Q148 105 154 92Q160 79 176 79Q199 79 233 108M354 590L66 590L66 671L354 671L354 590Z"  horiz-adv-x="396" vert-adv-y="1000"  />

      
      <glyph glyph-name="uni0102" unicode="&#x0102;" d="M428 0L296 0L279 115L159 115L140 0L10 0L147 706L296 706L428 0M265 224L222 527L175 224L265 224M292 892L369 892Q341 762 226 762Q185 762 155 776.50Q125 791 110 816.50Q95 842 90 856.50Q85 871 80 892L160 892Q179 842 228 842Q277 842 292 892Z"  horiz-adv-x="437" vert-adv-y="1000"  />

      
      <glyph glyph-name="uni0103" unicode="&#x0103;" d="M375 0L250 0Q237 16 236 45Q234 43 225.50 33.50Q217 24 213 20.50Q209 17 199.50 9.50Q190 2 181.50-1.50Q173-5 160-8Q147-11 133-11Q101-11 80 0Q59 11 49 31.50Q39 52 35.50 74Q32 96 32 125L32 160Q32 216 48 240.50Q64 265 110 288L234 350L234 389Q234 419 224.50 430Q215 441 192 441Q166 441 158.50 426.50Q151 412 151 373L151 354L42 354L42 412Q42 423 43.50 433Q45 443 54 461Q63 479 78 491.50Q93 504 125 513.50Q157 523 200 523Q210 523 221 522.50Q232 522 257.50 515.50Q283 509 302 498.50Q321 488 336.50 465Q352 442 352 410L352 99Q352 17 375 0M233 108L233 258L175 220Q158 208 153 191.50Q148 175 148 135Q148 105 154 92Q160 79 176 79Q199 79 233 108M265 706L342 706Q314 576 199 576Q158 576 128 590.50Q98 605 83 630.50Q68 656 63 670.50Q58 685 53 706L133 706Q152 656 201 656Q250 656 265 706Z"  horiz-adv-x="396" vert-adv-y="1000"  />

      
      <glyph glyph-name="uni0104" unicode="&#x0104;" d="M313 0L296 0L279 115L159 115L140 0L10 0L147 706L296 706L428 0L416 0Q398-5 374-30Q350-55 350-71Q350-97 388-97L416-97L416-181L364-181Q325-181 306-174.50Q287-168 273-147Q260-128 260-101Q260-60 313 0M265 224L222 527L175 224L265 224Z"  horiz-adv-x="437" vert-adv-y="1000"  />

      
      <glyph glyph-name="uni0105" unicode="&#x0105;" d="M151 354L42 354L42 412Q42 423 43.50 433Q45 443 54 461Q63 479 78 491.50Q93 504 125 513.50Q157 523 200 523Q210 523 221 522.50Q232 522 257.50 515.50Q283 509 302 498.50Q321 488 336.50 465Q352 442 352 410L352 99Q352 17 375 0L354 0Q336-3 311-29Q286-55 286-71Q286-97 324-97L352-97L352-181L300-181Q261-181 242-174.50Q223-168 209-147Q196-128 196-101Q196-52 250 0Q237 16 236 45Q234 43 225.50 33.50Q217 24 213 20.50Q209 17 199.50 9.50Q190 2 181.50-1.50Q173-5 160-8Q147-11 133-11Q101-11 80 0Q59 11 49 31.50Q39 52 35.50 74Q32 96 32 125L32 160Q32 216 48 240.50Q64 265 110 288L234 350L234 389Q234 419 224.50 430Q215 441 192 441Q166 441 158.50 426.50Q151 412 151 373L151 354M233 108L233 258L175 220Q158 208 153 191.50Q148 175 148 135Q148 105 154 92Q160 79 176 79Q199 79 233 108Z"  horiz-adv-x="396" vert-adv-y="1000"  />

      
      <glyph glyph-name="uni0106" unicode="&#x0106;" d="M302 265L430 265L430 148Q430-15 237-15Q216-15 196.50-13Q177-11 147.50-2.50Q118 6 97 21Q76 36 60.50 65Q45 94 45 134L45 550Q45 635 92 678Q139 721 242 721Q328 721 379 685.50Q430 650 430 580L430 449L302 449L302 538Q302 582 289 601.50Q276 621 235 621Q200 621 187.50 601.50Q175 582 175 544L175 166Q175 127 188.50 106.50Q202 86 239 86Q279 86 290.50 106Q302 126 302 173L302 265M388 897L262 763L169 763L233 897L388 897Z"  horiz-adv-x="458" vert-adv-y="1000"  />

      
      <glyph glyph-name="uni0107" unicode="&#x0107;" d="M249 203L367 203L367 145Q367 71 326.50 30.50Q286-10 205-10Q38-10 38 137L38 372Q38 444 84.50 483Q131 522 205 522Q232 522 257 516.50Q282 511 308.50 497.50Q335 484 351 455.50Q367 427 367 387L367 318L249 318L249 380Q249 437 205 437Q178 437 167 420Q156 403 156 368L156 145Q156 78 203 78Q249 78 249 144L249 203M358 706L225 574L138 574L205 706L358 706Z"  horiz-adv-x="396" vert-adv-y="1000"  />

      
      <glyph glyph-name="uni0108" unicode="&#x0108;" d="M302 265L430 265L430 148Q430-15 237-15Q216-15 196.50-13Q177-11 147.50-2.50Q118 6 97 21Q76 36 60.50 65Q45 94 45 134L45 550Q45 635 92 678Q139 721 242 721Q328 721 379 685.50Q430 650 430 580L430 449L302 449L302 538Q302 582 289 601.50Q276 621 235 621Q200 621 187.50 601.50Q175 582 175 544L175 166Q175 127 188.50 106.50Q202 86 239 86Q279 86 290.50 106Q302 126 302 173L302 265M393 762L289 762L245 835L197 762L92 762L178 895L307 895L393 762Z"  horiz-adv-x="458" vert-adv-y="1000"  />

      
      <glyph glyph-name="uni0109" unicode="&#x0109;" d="M249 203L367 203L367 145Q367 71 326.50 30.50Q286-10 205-10Q38-10 38 137L38 372Q38 444 84.50 483Q131 522 205 522Q232 522 257 516.50Q282 511 308.50 497.50Q335 484 351 455.50Q367 427 367 387L367 318L249 318L249 380Q249 437 205 437Q178 437 167 420Q156 403 156 368L156 145Q156 78 203 78Q249 78 249 144L249 203M354 574L249 574L205 647L157 574L52 574L138 706L267 706L354 574Z"  horiz-adv-x="396" vert-adv-y="1000"  />

      
      <glyph glyph-name="uni010A" unicode="&#x010A;" d="M302 265L430 265L430 148Q430-15 237-15Q216-15 196.50-13Q177-11 147.50-2.50Q118 6 97 21Q76 36 60.50 65Q45 94 45 134L45 550Q45 635 92 678Q139 721 242 721Q328 721 379 685.50Q430 650 430 580L430 449L302 449L302 538Q302 582 289 601.50Q276 621 235 621Q200 621 187.50 601.50Q175 582 175 544L175 166Q175 127 188.50 106.50Q202 86 239 86Q279 86 290.50 106Q302 126 302 173L302 265M305 754L169 754L169 883L305 883L305 754Z"  horiz-adv-x="458" vert-adv-y="1000"  />

      
      <glyph glyph-name="uni010B" unicode="&#x010B;" d="M249 203L367 203L367 145Q367 71 326.50 30.50Q286-10 205-10Q38-10 38 137L38 372Q38 444 84.50 483Q131 522 205 522Q232 522 257 516.50Q282 511 308.50 497.50Q335 484 351 455.50Q367 427 367 387L367 318L249 318L249 380Q249 437 205 437Q178 437 167 420Q156 403 156 368L156 145Q156 78 203 78Q249 78 249 144L249 203M272 574L134 574L134 706L272 706L272 574Z"  horiz-adv-x="396" vert-adv-y="1000"  />

      
      <glyph glyph-name="uni010C" unicode="&#x010C;" d="M302 265L430 265L430 148Q430-15 237-15Q216-15 196.50-13Q177-11 147.50-2.50Q118 6 97 21Q76 36 60.50 65Q45 94 45 134L45 550Q45 635 92 678Q139 721 242 721Q328 721 379 685.50Q430 650 430 580L430 449L302 449L302 538Q302 582 289 601.50Q276 621 235 621Q200 621 187.50 601.50Q175 582 175 544L175 166Q175 127 188.50 106.50Q202 86 239 86Q279 86 290.50 106Q302 126 302 173L302 265M388 895L303 762L171 762L86 895L191 895L236 821L284 895L388 895Z"  horiz-adv-x="458" vert-adv-y="1000"  />

      
      <glyph glyph-name="uni010D" unicode="&#x010D;" d="M249 203L367 203L367 145Q367 71 326.50 30.50Q286-10 205-10Q38-10 38 137L38 372Q38 444 84.50 483Q131 522 205 522Q232 522 257 516.50Q282 511 308.50 497.50Q335 484 351 455.50Q367 427 367 387L367 318L249 318L249 380Q249 437 205 437Q178 437 167 420Q156 403 156 368L156 145Q156 78 203 78Q249 78 249 144L249 203M356 706L271 574L139 574L54 706L159 706L204 633L252 706L356 706Z"  horiz-adv-x="396" vert-adv-y="1000"  />

      
      <glyph glyph-name="uni010E" unicode="&#x010E;" d="M50 706L280 706Q355 706 396.50 662Q438 618 438 535L438 181Q438 79 393 39.50Q348 0 259 0L50 0L50 706M180 603L180 103L234 103Q278 103 293.50 119.50Q309 136 309 179L309 531Q309 572 294 587.50Q279 603 239 603L180 603M378 895L293 762L161 762L76 895L181 895L226 821L274 895L378 895Z"  horiz-adv-x="479" vert-adv-y="1000"  />

      
      <glyph glyph-name="uni010F" unicode="&#x010F;" d="M372 0L253 0L253 50Q252 49 247 42Q242 35 239 31Q236 27 229.50 20Q223 13 216 8.50Q209 4 199.50-0.50Q190-5 178.50-7.50Q167-10 154-10Q97-10 68 24Q39 58 39 118L39 405Q39 447 66 485Q93 523 150 523Q197 523 253 471L253 706L372 706L372 0M157 366L157 148Q157 135 158 128Q159 121 162.50 110.50Q166 100 176.50 95Q187 90 203 90Q253 90 253 152L253 372Q253 431 203 431Q187 431 176.50 425Q166 419 162.50 407Q159 395 158 387Q157 379 157 366M453 541L413 541L435 603L398 603L398 706L499 706L499 603L453 541Z"  horiz-adv-x="417" vert-adv-y="1000"  />

      
      <glyph glyph-name="uni0110" unicode="&#x0110;" d="M180 603L180 406L257 406L257 334L180 334L180 103L226 103Q273 103 290.50 117.50Q308 132 308 179L308 531Q308 572 293.50 587.50Q279 603 238 603L180 603M50 407L50 706L260 706Q289 706 306 704.50Q323 703 349.50 692.50Q376 682 396 662Q438 619 438 520L438 190Q438 147 432.50 118Q427 89 410.50 59.50Q394 30 356 15Q318 0 259 0L50 0L50 334L0 334L0 407L50 407Z"  horiz-adv-x="479" vert-adv-y="1000"  />

      
      <glyph glyph-name="uni0111" unicode="&#x0111;" d="M372 0L253 0L253 50Q252 49 247 42Q242 35 239 31Q236 27 229.50 20Q223 13 216 8.50Q209 4 199.50-0.50Q190-5 178.50-7.50Q167-10 154-10Q97-10 68 24Q39 58 39 118L39 405Q39 447 66 485Q93 523 150 523Q197 523 253 471L253 571L149 571L149 650L253 650L253 706L372 706L372 650L417 650L417 571L372 571L372 0M157 366L157 148Q157 135 158 128Q159 121 162.50 110.50Q166 100 176.50 95Q187 90 203 90Q253 90 253 152L253 372Q253 431 203 431Q187 431 176.50 425Q166 419 162.50 407Q159 395 158 387Q157 379 157 366Z"  horiz-adv-x="417" vert-adv-y="1000"  />

      
      <glyph glyph-name="uni0112" unicode="&#x0112;" d="M402 0L50 0L50 706L392 706L392 599L180 599L180 433L380 433L380 326L180 326L180 109L402 109L402 0M368 770L80 770L80 851L368 851L368 770Z"  horiz-adv-x="417" vert-adv-y="1000"  />

      
      <glyph glyph-name="uni0113" unicode="&#x0113;" d="M360 230L157 230L157 140Q157 83 201 83Q227 83 235 101Q243 119 243 152L243 169L358 169L358 127Q358-10 201-10Q38-10 38 155L38 371Q38 442 81.50 482Q125 522 202 522Q275 522 317.50 485Q360 448 360 385L360 230M242 314L242 377Q242 428 201 428Q157 428 157 377L157 314L242 314M346 590L58 590L58 671L346 671L346 590Z"  horiz-adv-x="396" vert-adv-y="1000"  />

      
      <glyph glyph-name="uni0114" unicode="&#x0114;" d="M402 0L50 0L50 706L392 706L392 599L180 599L180 433L380 433L380 326L180 326L180 109L402 109L402 0M281 892L358 892Q330 762 215 762Q174 762 144 776.50Q114 791 99 816.50Q84 842 79 856.50Q74 871 69 892L149 892Q168 842 217 842Q266 842 281 892Z"  horiz-adv-x="417" vert-adv-y="1000"  />

      
      <glyph glyph-name="uni0115" unicode="&#x0115;" d="M360 230L157 230L157 140Q157 83 201 83Q227 83 235 101Q243 119 243 152L243 169L358 169L358 127Q358-10 201-10Q38-10 38 155L38 371Q38 442 81.50 482Q125 522 202 522Q275 522 317.50 485Q360 448 360 385L360 230M242 314L242 377Q242 428 201 428Q157 428 157 377L157 314L242 314M265 706L342 706Q314 576 199 576Q158 576 128 590.50Q98 605 83 630.50Q68 656 63 670.50Q58 685 53 706L133 706Q152 656 201 656Q250 656 265 706Z"  horiz-adv-x="396" vert-adv-y="1000"  />

      
      <glyph glyph-name="uni0116" unicode="&#x0116;" d="M402 0L50 0L50 706L392 706L392 599L180 599L180 433L380 433L380 326L180 326L180 109L402 109L402 0M292 754L156 754L156 883L292 883L292 754Z"  horiz-adv-x="417" vert-adv-y="1000"  />

      
      <glyph glyph-name="uni0117" unicode="&#x0117;" d="M360 230L157 230L157 140Q157 83 201 83Q227 83 235 101Q243 119 243 152L243 169L358 169L358 127Q358-10 201-10Q38-10 38 155L38 371Q38 442 81.50 482Q125 522 202 522Q275 522 317.50 485Q360 448 360 385L360 230M242 314L242 377Q242 428 201 428Q157 428 157 377L157 314L242 314M268 574L130 574L130 706L268 706L268 574Z"  horiz-adv-x="396" vert-adv-y="1000"  />

      
      <glyph glyph-name="uni0118" unicode="&#x0118;" d="M292 0L50 0L50 706L392 706L392 599L180 599L180 433L380 433L380 326L180 326L180 109L402 109L402 0L395 0Q379-3 354-29Q329-55 329-71Q329-97 367-97L395-97L395-181L343-181Q304-181 285-174.50Q266-168 252-147Q239-128 239-101Q239-60 292 0Z"  horiz-adv-x="417" vert-adv-y="1000"  />

      
      <glyph glyph-name="uni0119" unicode="&#x0119;" d="M360 230L157 230L157 140Q157 83 201 83Q227 83 235 101Q243 119 243 152L243 169L358 169L358 127Q358 48 303 14Q268-8 246-32Q224-56 224-71Q224-97 262-97L290-97L290-181L238-181Q199-181 180-174.50Q161-168 147-147Q134-128 134-101Q134-61 179-9Q38 2 38 155L38 371Q38 442 81.50 482Q125 522 202 522Q275 522 317.50 485Q360 448 360 385L360 230M242 314L242 377Q242 428 201 428Q157 428 157 377L157 314L242 314Z"  horiz-adv-x="396" vert-adv-y="1000"  />

      
      <glyph glyph-name="uni011A" unicode="&#x011A;" d="M402 0L50 0L50 706L392 706L392 599L180 599L180 433L380 433L380 326L180 326L180 109L402 109L402 0M372 895L287 762L155 762L70 895L175 895L220 821L268 895L372 895Z"  horiz-adv-x="417" vert-adv-y="1000"  />

      
      <glyph glyph-name="uni011B" unicode="&#x011B;" d="M360 230L157 230L157 140Q157 83 201 83Q227 83 235 101Q243 119 243 152L243 169L358 169L358 127Q358-10 201-10Q38-10 38 155L38 371Q38 442 81.50 482Q125 522 202 522Q275 522 317.50 485Q360 448 360 385L360 230M242 314L242 377Q242 428 201 428Q157 428 157 377L157 314L242 314M353 706L268 574L136 574L51 706L156 706L201 633L249 706L353 706Z"  horiz-adv-x="396" vert-adv-y="1000"  />

      
      <glyph glyph-name="uni011C" unicode="&#x011C;" d="M433 0L322 0L322 42Q274-15 196-15Q117-15 80.50 26.50Q44 68 44 125L44 543Q44 638 95.50 679.50Q147 721 245 721Q324 721 378.50 690Q433 659 433 588L433 478L303 478L303 553Q303 583 291 601Q279 619 242 619Q205 619 190.50 598Q176 577 176 530L176 150Q176 86 238 86Q277 86 290 106Q303 126 303 167L303 277L223 277L223 383L433 383L433 0M390 762L286 762L242 835L194 762L89 762L175 895L304 895L390 762Z"  horiz-adv-x="479" vert-adv-y="1000"  />

      
      <glyph glyph-name="uni011D" unicode="&#x011D;" d="M372 512L372-20Q372-97 335-139.50Q298-182 198-182Q119-182 80-150Q41-118 41-42L159-42Q159-96 205-96Q253-96 253-35L253 44Q209-6 149-6Q38-6 38 118L38 389Q38 522 147 522Q199 522 253 471L253 512L372 512M156 371L156 142Q156 85 203 85Q252 85 252 143L252 369Q252 386 250.50 396.50Q249 407 237.50 419.50Q226 432 204 432Q156 432 156 371M360 574L255 574L211 647L163 574L58 574L144 706L273 706L360 574Z"  horiz-adv-x="417" vert-adv-y="1000"  />

      
      <glyph glyph-name="uni011E" unicode="&#x011E;" d="M433 0L322 0L322 42Q274-15 196-15Q117-15 80.50 26.50Q44 68 44 125L44 543Q44 638 95.50 679.50Q147 721 245 721Q324 721 378.50 690Q433 659 433 588L433 478L303 478L303 553Q303 583 291 601Q279 619 242 619Q205 619 190.50 598Q176 577 176 530L176 150Q176 86 238 86Q277 86 290 106Q303 126 303 167L303 277L223 277L223 383L433 383L433 0M308 892L385 892Q357 762 242 762Q201 762 171 776.50Q141 791 126 816.50Q111 842 106 856.50Q101 871 96 892L176 892Q195 842 244 842Q293 842 308 892Z"  horiz-adv-x="479" vert-adv-y="1000"  />

      
      <glyph glyph-name="uni011F" unicode="&#x011F;" d="M372 512L372-20Q372-97 335-139.50Q298-182 198-182Q119-182 80-150Q41-118 41-42L159-42Q159-96 205-96Q253-96 253-35L253 44Q209-6 149-6Q38-6 38 118L38 389Q38 522 147 522Q199 522 253 471L253 512L372 512M156 371L156 142Q156 85 203 85Q252 85 252 143L252 369Q252 386 250.50 396.50Q249 407 237.50 419.50Q226 432 204 432Q156 432 156 371M276 706L353 706Q325 576 210 576Q169 576 139 590.50Q109 605 94 630.50Q79 656 74 670.50Q69 685 64 706L144 706Q163 656 212 656Q261 656 276 706Z"  horiz-adv-x="417" vert-adv-y="1000"  />

      
      <glyph glyph-name="uni0120" unicode="&#x0120;" d="M433 0L322 0L322 42Q274-15 196-15Q117-15 80.50 26.50Q44 68 44 125L44 543Q44 638 95.50 679.50Q147 721 245 721Q324 721 378.50 690Q433 659 433 588L433 478L303 478L303 553Q303 583 291 601Q279 619 242 619Q205 619 190.50 598Q176 577 176 530L176 150Q176 86 238 86Q277 86 290 106Q303 126 303 167L303 277L223 277L223 383L433 383L433 0M309 754L173 754L173 883L309 883L309 754Z"  horiz-adv-x="479" vert-adv-y="1000"  />

      
      <glyph glyph-name="uni0121" unicode="&#x0121;" d="M372 512L372-20Q372-97 335-139.50Q298-182 198-182Q119-182 80-150Q41-118 41-42L159-42Q159-96 205-96Q253-96 253-35L253 44Q209-6 149-6Q38-6 38 118L38 389Q38 522 147 522Q199 522 253 471L253 512L372 512M156 371L156 142Q156 85 203 85Q252 85 252 143L252 369Q252 386 250.50 396.50Q249 407 237.50 419.50Q226 432 204 432Q156 432 156 371M277 574L139 574L139 706L277 706L277 574Z"  horiz-adv-x="417" vert-adv-y="1000"  />

      
      <glyph glyph-name="uni0122" unicode="&#x0122;" d="M433 0L322 0L322 42Q274-15 196-15Q117-15 80.50 26.50Q44 68 44 125L44 543Q44 638 95.50 679.50Q147 721 245 721Q324 721 378.50 690Q433 659 433 588L433 478L303 478L303 553Q303 583 291 601Q279 619 242 619Q205 619 190.50 598Q176 577 176 530L176 150Q176 86 238 86Q277 86 290 106Q303 126 303 167L303 277L223 277L223 383L433 383L433 0M244-179L208-179L227-123L194-123L194-35L285-35L285-123L244-179Z"  horiz-adv-x="479" vert-adv-y="1000"  />

      
      <glyph glyph-name="uni0123" unicode="&#x0123;" d="M372 512L372-20Q372-97 335-139.50Q298-182 198-182Q119-182 80-150Q41-118 41-42L159-42Q159-96 205-96Q253-96 253-35L253 44Q209-6 149-6Q38-6 38 118L38 389Q38 522 147 522Q199 522 253 471L253 512L372 512M156 371L156 142Q156 85 203 85Q252 85 252 143L252 369Q252 386 250.50 396.50Q249 407 237.50 419.50Q226 432 204 432Q156 432 156 371M198 718L234 718L215 662L248 662L248 574L157 574L157 662L198 718Z"  horiz-adv-x="417" vert-adv-y="1000"  />

      
      <glyph glyph-name="uni0124" unicode="&#x0124;" d="M429 0L299 0L299 323L180 323L180 0L50 0L50 706L180 706L180 429L299 429L299 706L429 706L429 0M390 762L286 762L242 835L194 762L89 762L175 895L304 895L390 762Z"  horiz-adv-x="479" vert-adv-y="1000"  />

      
      <glyph glyph-name="uni0125" unicode="&#x0125;" d="M372 0L254 0L254 364Q254 395 245.50 411Q237 427 210 427Q163 427 163 371L163 0L44 0L44 706L161 706L161 471Q208 522 266 522Q317 522 344.50 488Q372 454 372 401L372 0M252 762L148 762L104 835L56 762L-49 762L37 895L166 895L252 762Z"  horiz-adv-x="417" vert-adv-y="1000"  />

      
      <glyph glyph-name="uni0126" unicode="&#x0126;" d="M4 523L4 621L50 621L50 706L180 706L180 621L299 621L299 706L429 706L429 621L476 621L476 523L429 523L429 0L299 0L299 323L180 323L180 0L50 0L50 523L4 523M180 429L299 429L299 523L180 523L180 429Z"  horiz-adv-x="479" vert-adv-y="1000"  />

      
      <glyph glyph-name="uni0127" unicode="&#x0127;" d="M264 572L161 572L161 471Q208 522 266 522Q317 522 344.50 488Q372 454 372 401L372 0L254 0L254 364Q254 395 245.50 411Q237 427 210 427Q163 427 163 371L163 0L44 0L44 572L0 572L0 651L44 651L44 706L161 706L161 651L264 651L264 572Z"  horiz-adv-x="417" vert-adv-y="1000"  />

      
      <glyph glyph-name="uni0128" unicode="&#x0128;" d="M179 0L50 0L50 706L179 706L179 0M212 887L272 887Q272 758 192 758Q168 758 119.50 780Q71 802 59 802Q26 802 19 761L-42 761Q-42 814-19 851.50Q4 889 51 889Q78 889 123.50 867.50Q169 846 182 846Q205 846 212 887Z"  horiz-adv-x="229" vert-adv-y="1000"  />

      
      <glyph glyph-name="uni0129" unicode="&#x0129;" d="M164 0L44 0L44 512L164 512L164 0M198 699L256 699Q256 570 179 570Q154 570 106 591.50Q58 613 49 613Q19 613 12 573L-48 573Q-48 626-26 663.50Q-4 701 42 701Q69 701 111.50 680Q154 659 168 659Q193 659 198 699Z"  horiz-adv-x="208" vert-adv-y="1000"  />

      
      <glyph glyph-name="uni012A" unicode="&#x012A;" d="M179 0L50 0L50 706L179 706L179 0M232 770L-3 770L-3 851L232 851L232 770Z"  horiz-adv-x="229" vert-adv-y="1000"  />

      
      <glyph glyph-name="uni012B" unicode="&#x012B;" d="M164 0L44 0L44 512L164 512L164 0M218 590L-10 590L-10 671L218 671L218 590Z"  horiz-adv-x="208" vert-adv-y="1000"  />

      
      <glyph glyph-name="uni012C" unicode="&#x012C;" d="M179 0L50 0L50 706L179 706L179 0M182 892L259 892Q231 762 116 762Q75 762 45 776.50Q15 791 0 816.50Q-15 842-20 856.50Q-25 871-30 892L50 892Q69 842 118 842Q167 842 182 892Z"  horiz-adv-x="229" vert-adv-y="1000"  />

      
      <glyph glyph-name="uni012D" unicode="&#x012D;" d="M164 0L44 0L44 512L164 512L164 0M172 706L249 706Q221 576 106 576Q65 576 35 590.50Q5 605-10 630.50Q-25 656-30 670.50Q-35 685-40 706L40 706Q59 656 108 656Q157 656 172 706Z"  horiz-adv-x="208" vert-adv-y="1000"  />

      
      <glyph glyph-name="uni012E" unicode="&#x012E;" d="M50 706L179 706L179 0Q160-10 139-33.50Q118-57 118-71Q118-97 156-97L184-97L184-181L132-181Q93-181 74-174.50Q55-168 41-147Q28-128 28-101Q28-60 81 0L50 0L50 706Z"  horiz-adv-x="229" vert-adv-y="1000"  />

      
      <glyph glyph-name="uni012F" unicode="&#x012F;" d="M44 0L44 512L164 512L164 0Q144-12 124.50-34Q105-56 105-71Q105-97 143-97L171-97L171-181L119-181Q80-181 61-174.50Q42-168 28-147Q15-128 15-101Q15-60 68 0L44 0M164 586L44 586L44 706L164 706L164 586Z"  horiz-adv-x="208" vert-adv-y="1000"  />

      
      <glyph glyph-name="uni0130" unicode="&#x0130;" d="M179 0L50 0L50 706L179 706L179 0M183 754L47 754L47 883L183 883L183 754Z"  horiz-adv-x="229" vert-adv-y="1000"  />

      
      <glyph glyph-name="uni0131" unicode="&#x0131;" d="M164 0L44 0L44 512L164 512L164 0Z"  horiz-adv-x="208" vert-adv-y="1000"  />

      
      <glyph glyph-name="uni0132" unicode="&#x0132;" d="M179 0L50 0L50 706L179 706L179 0M351 224L351 157Q351 121 360.50 104.50Q370 88 397 88Q421 88 432.50 104Q444 120 444 159L444 706L575 706L575 152Q575 110 564 79Q553 48 536 30.50Q519 13 494 2.50Q469-8 446-11.50Q423-15 395-15Q230-15 230 129L230 224L351 224Z"  horiz-adv-x="625" vert-adv-y="1000"  />

      
      <glyph glyph-name="uni0133" unicode="&#x0133;" d="M164 586L44 586L44 706L164 706L164 586M164 0L44 0L44 512L164 512L164 0M372 587L253 587L253 706L372 706L372 587M372 512L372-48Q372-75 368.50-94Q365-113 353.50-134Q342-155 315.50-166Q289-177 249-177Q222-177 200-174L200-74Q235-74 244-62.50Q253-51 253-14L253 512L372 512Z"  horiz-adv-x="416" vert-adv-y="1000"  />

      
      <glyph glyph-name="uni0134" unicode="&#x0134;" d="M122 224L122 157Q122 121 131.50 104.50Q141 88 168 88Q192 88 203.50 104Q215 120 215 159L215 706L346 706L346 152Q346 110 335 79Q324 48 307 30.50Q290 13 265 2.50Q240-8 217-11.50Q194-15 166-15Q1-15 1 129L1 224L122 224M431 762L327 762L283 835L235 762L130 762L216 895L345 895L431 762Z"  horiz-adv-x="396" vert-adv-y="1000"  />

      
      <glyph glyph-name="uni0135" unicode="&#x0135;" d="M164 512L164-48Q164-75 160.50-94Q157-113 145.50-134Q134-155 107.50-166Q81-177 41-177Q14-177-8-174L-8-74Q27-74 36-62.50Q45-51 45-14L45 512L164 512M255 574L150 574L106 647L58 574L-47 574L39 706L168 706L255 574Z"  horiz-adv-x="208" vert-adv-y="1000"  />

      
      <glyph glyph-name="uni0136" unicode="&#x0136;" d="M461 0L320 0L182 345L182 0L50 0L50 706L182 706L182 431L323 706L457 706L296 401L461 0M245-179L209-179L228-123L195-123L195-35L286-35L286-123L245-179Z"  horiz-adv-x="458" vert-adv-y="1000"  />

      
      <glyph glyph-name="uni0137" unicode="&#x0137;" d="M406 0L272 0L162 261L162 0L44 0L44 706L162 706L162 337L260 512L392 512L261 299L406 0M219-179L183-179L202-123L169-123L169-35L260-35L260-123L219-179Z"  horiz-adv-x="396" vert-adv-y="1000"  />

      
      <glyph glyph-name="uni0138" unicode="&#x0138;" d="M406 0L272 0L162 261L162 0L44 0L44 512L162 512L162 337L260 512L392 512L261 299L406 0Z"  horiz-adv-x="396" vert-adv-y="1000"  />

      
      <glyph glyph-name="uni0139" unicode="&#x0139;" d="M371 0L50 0L50 706L180 706L180 107L371 107L371 0M279 897L153 763L60 763L124 897L279 897Z"  horiz-adv-x="375" vert-adv-y="1000"  />

      
      <glyph glyph-name="uni013A" unicode="&#x013A;" d="M164 0L44 0L44 706L164 706L164 0M274 897L148 763L55 763L119 897L274 897Z"  horiz-adv-x="208" vert-adv-y="1000"  />

      
      <glyph glyph-name="uni013B" unicode="&#x013B;" d="M371 0L50 0L50 706L180 706L180 107L371 107L371 0M215-179L179-179L198-123L165-123L165-35L256-35L256-123L215-179Z"  horiz-adv-x="375" vert-adv-y="1000"  />

      
      <glyph glyph-name="uni013C" unicode="&#x013C;" d="M164 0L44 0L44 706L164 706L164 0M108-179L72-179L91-123L58-123L58-35L149-35L149-123L108-179Z"  horiz-adv-x="208" vert-adv-y="1000"  />

      
      <glyph glyph-name="uni013D" unicode="&#x013D;" d="M371 0L50 0L50 706L180 706L180 107L371 107L371 0M260 541L220 541L242 603L205 603L205 706L306 706L306 603L260 541Z"  horiz-adv-x="375" vert-adv-y="1000"  />

      
      <glyph glyph-name="uni013E" unicode="&#x013E;" d="M164 0L44 0L44 706L164 706L164 0M244 541L204 541L226 603L189 603L189 706L290 706L290 603L244 541Z"  horiz-adv-x="208" vert-adv-y="1000"  />

      
      <glyph glyph-name="uni013F" unicode="&#x013F;" d="M371 0L50 0L50 706L180 706L180 107L371 107L371 0M359 313L235 313L235 448L359 448L359 313Z"  horiz-adv-x="375" vert-adv-y="1000"  />

      
      <glyph glyph-name="uni0140" unicode="&#x0140;" d="M164 0L44 0L44 706L164 706L164 0M307 301L195 301L195 433L307 433L307 301Z"  horiz-adv-x="294" vert-adv-y="1000"  />

      
      <glyph glyph-name="uni0141" unicode="&#x0141;" d="M371 0L50 0L50 192L0 125L0 244L50 307L50 706L180 706L180 480L274 604L274 486L180 364L180 107L371 107L371 0Z"  horiz-adv-x="375" vert-adv-y="1000"  />

      
      <glyph glyph-name="uni0142" unicode="&#x0142;" d="M208 474L164 411L164 0L44 0L44 250L0 190L0 295L44 354L44 706L164 706L164 518L208 579L208 474Z"  horiz-adv-x="208" vert-adv-y="1000"  />

      
      <glyph glyph-name="uni0143" unicode="&#x0143;" d="M450 0L286 0L161 529Q167 202 172 0L50 0L50 706L217 706L344 188Q333 616 331 706L450 706L450 0M397 897L271 763L178 763L242 897L397 897Z"  horiz-adv-x="500" vert-adv-y="1000"  />

      
      <glyph glyph-name="uni0144" unicode="&#x0144;" d="M372 0L255 0L255 377Q255 408 246.50 423Q238 438 214 438Q187 438 175 422Q163 406 163 369L163 0L44 0L44 512L164 512L164 475Q190 500 212 511Q234 522 266 522Q319 522 345.50 491Q372 460 372 419L372 0M363 706L230 574L143 574L210 706L363 706Z"  horiz-adv-x="417" vert-adv-y="1000"  />

      
      <glyph glyph-name="uni0145" unicode="&#x0145;" d="M450 0L286 0L161 529Q167 202 172 0L50 0L50 706L217 706L344 188Q333 616 331 706L450 706L450 0M255-179L219-179L238-123L205-123L205-35L296-35L296-123L255-179Z"  horiz-adv-x="500" vert-adv-y="1000"  />

      
      <glyph glyph-name="uni0146" unicode="&#x0146;" d="M372 0L255 0L255 377Q255 408 246.50 423Q238 438 214 438Q187 438 175 422Q163 406 163 369L163 0L44 0L44 512L164 512L164 475Q190 500 212 511Q234 522 266 522Q319 522 345.50 491Q372 460 372 419L372 0M212-179L176-179L195-123L162-123L162-35L253-35L253-123L212-179Z"  horiz-adv-x="417" vert-adv-y="1000"  />

      
      <glyph glyph-name="uni0147" unicode="&#x0147;" d="M450 0L286 0L161 529Q167 202 172 0L50 0L50 706L217 706L344 188Q333 616 331 706L450 706L450 0M402 895L317 762L185 762L100 895L205 895L250 821L298 895L402 895Z"  horiz-adv-x="500" vert-adv-y="1000"  />

      
      <glyph glyph-name="uni0148" unicode="&#x0148;" d="M372 0L255 0L255 377Q255 408 246.50 423Q238 438 214 438Q187 438 175 422Q163 406 163 369L163 0L44 0L44 512L164 512L164 475Q190 500 212 511Q234 522 266 522Q319 522 345.50 491Q372 460 372 419L372 0M361 706L276 574L144 574L59 706L164 706L209 633L257 706L361 706Z"  horiz-adv-x="417" vert-adv-y="1000"  />

      
      <glyph glyph-name="uni0149" unicode="&#x0149;" d="M372 0L255 0L255 377Q255 408 246.50 423Q238 438 214 438Q187 438 175 422Q163 406 163 369L163 0L44 0L44 512L164 512L164 475Q190 500 212 511Q234 522 266 522Q319 522 345.50 491Q372 460 372 419L372 0M56 541L16 541L38 603L1 603L1 706L102 706L102 603L56 541Z"  horiz-adv-x="417" vert-adv-y="1000"  />

      
      <glyph glyph-name="uni014A" unicode="&#x014A;" d="M450 706L450-39Q450-66 446.50-85Q443-104 431.50-125Q420-146 393.50-157Q367-168 327-168Q300-168 278-165L278-64Q288-66 302-66Q318-66 325-55Q332-44 332-13L161 529Q167 202 172 0L50 0L50 706L217 706L341 298Q333 616 331 706L450 706Z"  horiz-adv-x="500" vert-adv-y="1000"  />

      
      <glyph glyph-name="uni014B" unicode="&#x014B;" d="M372 419L372-36Q372-64 368.50-82.50Q365-101 354-122Q343-143 317-154Q291-165 251-165Q223-165 206-162L206-66Q215-67 226-67Q242-67 248.50-55.50Q255-44 255-12L255 377Q255 408 246.50 423Q238 438 214 438Q187 438 175 422Q163 406 163 369L163 0L44 0L44 512L164 512L164 475Q190 500 212 511Q234 522 266 522Q319 522 345.50 491Q372 460 372 419Z"  horiz-adv-x="417" vert-adv-y="1000"  />

      
      <glyph glyph-name="uni014C" unicode="&#x014C;" d="M44 148L44 547Q44 631 89 676Q134 721 242 721Q333 721 384 680.50Q435 640 435 559L435 150Q435-15 241-15Q44-15 44 148M304 170L304 534Q304 553 303 564Q302 575 296.50 591Q291 607 277 614.50Q263 622 241 622Q222 622 208.50 615.50Q195 609 188.50 601Q182 593 178.50 578Q175 563 174.50 554Q174 545 174 529L174 173Q174 147 176.50 131.50Q179 116 194.50 101.50Q210 87 240 87Q263 87 277 94.50Q291 102 296.50 117Q302 132 303 142Q304 152 304 170M383 770L95 770L95 851L383 851L383 770Z"  horiz-adv-x="479" vert-adv-y="1000"  />

      
      <glyph glyph-name="uni014D" unicode="&#x014D;" d="M358 382L358 132Q358 59 312.50 24.50Q267-10 193-10Q38-10 38 144L38 374Q38 522 200 522Q358 522 358 382M157 385L157 125Q157 72 198 72Q240 72 240 126L240 386Q240 448 200 448Q180 448 170 436Q160 424 158.50 413.50Q157 403 157 385M342 590L54 590L54 671L342 671L342 590Z"  horiz-adv-x="396" vert-adv-y="1000"  />

      
      <glyph glyph-name="uni014E" unicode="&#x014E;" d="M44 148L44 547Q44 631 89 676Q134 721 242 721Q333 721 384 680.50Q435 640 435 559L435 150Q435-15 241-15Q44-15 44 148M304 170L304 534Q304 553 303 564Q302 575 296.50 591Q291 607 277 614.50Q263 622 241 622Q222 622 208.50 615.50Q195 609 188.50 601Q182 593 178.50 578Q175 563 174.50 554Q174 545 174 529L174 173Q174 147 176.50 131.50Q179 116 194.50 101.50Q210 87 240 87Q263 87 277 94.50Q291 102 296.50 117Q302 132 303 142Q304 152 304 170M307 892L384 892Q356 762 241 762Q200 762 170 776.50Q140 791 125 816.50Q110 842 105 856.50Q100 871 95 892L175 892Q194 842 243 842Q292 842 307 892Z"  horiz-adv-x="479" vert-adv-y="1000"  />

      
      <glyph glyph-name="uni014F" unicode="&#x014F;" d="M358 382L358 132Q358 59 312.50 24.50Q267-10 193-10Q38-10 38 144L38 374Q38 522 200 522Q358 522 358 382M157 385L157 125Q157 72 198 72Q240 72 240 126L240 386Q240 448 200 448Q180 448 170 436Q160 424 158.50 413.50Q157 403 157 385M265 706L342 706Q314 576 199 576Q158 576 128 590.50Q98 605 83 630.50Q68 656 63 670.50Q58 685 53 706L133 706Q152 656 201 656Q250 656 265 706Z"  horiz-adv-x="396" vert-adv-y="1000"  />

      
      <glyph glyph-name="uni0150" unicode="&#x0150;" d="M44 148L44 547Q44 631 89 676Q134 721 242 721Q333 721 384 680.50Q435 640 435 559L435 150Q435-15 241-15Q44-15 44 148M304 170L304 534Q304 553 303 564Q302 575 296.50 591Q291 607 277 614.50Q263 622 241 622Q222 622 208.50 615.50Q195 609 188.50 601Q182 593 178.50 578Q175 563 174.50 554Q174 545 174 529L174 173Q174 147 176.50 131.50Q179 116 194.50 101.50Q210 87 240 87Q263 87 277 94.50Q291 102 296.50 117Q302 132 303 142Q304 152 304 170M307 895L186 763L115 763L173 895L307 895M471 895L350 763L279 763L337 895L471 895Z"  horiz-adv-x="479" vert-adv-y="1000"  />

      
      </font>
</defs>
</svg>
