<?xml version="1.0" standalone="no"?>
<!DOCTYPE svg PUBLIC "-//W3C//DTD SVG 20010904//EN"
 "http://www.w3.org/TR/2001/REC-SVG-20010904/DTD/svg10.dtd">
<svg version="1.0" xmlns="http://www.w3.org/2000/svg"
 width="152.000000pt" height="152.000000pt" viewBox="0 0 152.000000 152.000000"
 preserveAspectRatio="xMidYMid meet">
<metadata>
Created by potrace 1.11, written by Peter Selinger 2001-2013
</metadata>
<g transform="translate(0.000000,152.000000) scale(0.100000,-0.100000)"
fill="#000000" stroke="none">
<path d="M588 1394 c-71 -17 -166 -64 -213 -105 -27 -24 -35 -39 -35 -64 0
-18 -11 -52 -25 -76 -47 -85 -66 -224 -45 -329 8 -41 7 -46 -13 -60 -198 -135
-231 -391 -70 -556 81 -84 250 -139 301 -97 l23 18 -22 320 c-24 358 -27 370
-85 363 -37 -4 -37 -5 -48 74 -10 79 37 258 68 258 6 0 34 17 62 38 77 58 147
77 284 77 135 0 207 -18 273 -69 24 -19 53 -37 64 -40 47 -15 92 -182 76 -286
l-8 -55 -36 3 c-24 2 -40 -2 -50 -14 -18 -22 -63 -648 -48 -676 14 -25 48 -31
112 -19 126 23 235 109 278 218 33 86 32 199 -3 275 -29 62 -96 141 -139 163
-25 13 -26 17 -18 57 21 108 4 240 -42 331 -12 23 -23 58 -25 77 -5 65 -119
143 -256 175 -79 19 -282 18 -360 -1z"/>
<path d="M516 764 c-19 -19 -20 17 4 -324 19 -267 21 -286 41 -303 19 -15 25
-16 43 -4 12 8 22 27 24 43 6 60 -36 575 -48 589 -16 19 -45 19 -64 -1z"/>
<path d="M967 768 c-15 -11 -20 -58 -38 -306 -11 -161 -18 -299 -15 -307 10
-28 43 -36 66 -17 20 16 23 34 42 316 20 290 20 300 2 313 -22 16 -35 16 -57
1z"/>
</g>
</svg>
