<?xml version="1.0" standalone="no"?>
<!DOCTYPE svg PUBLIC "-//W3C//DTD SVG 20010904//EN"
 "http://www.w3.org/TR/2001/REC-SVG-20010904/DTD/svg10.dtd">
<svg version="1.0" xmlns="http://www.w3.org/2000/svg"
 width="512.000000pt" height="512.000000pt" viewBox="0 0 512.000000 512.000000"
 preserveAspectRatio="xMidYMid meet">
<metadata>
Created by potrace 1.11, written by Peter Selinger 2001-2013
</metadata>
<g transform="translate(0.000000,512.000000) scale(0.100000,-0.100000)"
fill="#000000" stroke="none">
<path d="M1163 5088 c-44 -38 -74 -72 -126 -142 -21 -28 -45 -59 -53 -69 -28
-34 -112 -189 -138 -252 -36 -89 -64 -204 -72 -288 -3 -40 -8 -75 -10 -78 -2
-4 -27 -19 -56 -34 -173 -90 -303 -257 -362 -465 -33 -119 -41 -184 -40 -355
0 -153 10 -233 46 -385 106 -450 380 -952 728 -1333 333 -365 701 -617 1086
-745 145 -48 214 -58 287 -43 76 15 220 84 387 185 l125 75 51 -52 c28 -29 70
-80 93 -115 40 -59 141 -229 141 -237 0 -15 189 -318 209 -335 3 -3 22 -25 41
-50 131 -171 310 -300 480 -346 99 -27 266 -25 355 3 195 62 368 236 440 441
34 96 39 130 39 243 0 241 -133 397 -378 444 -43 8 -93 15 -112 15 l-35 0 25
33 c36 47 41 85 17 124 -30 47 -107 63 -149 30 -7 -6 -38 -47 -70 -91 -31 -45
-66 -92 -77 -105 -44 -54 -101 -116 -111 -123 -37 -24 -41 -119 -6 -151 19
-17 273 -102 331 -111 38 -5 88 12 110 37 28 35 15 124 -21 141 -35 16 103 -8
143 -25 218 -94 177 -417 -79 -617 -147 -115 -320 -142 -468 -73 -158 74 -268
198 -473 531 -122 198 -204 319 -270 397 l-58 70 126 91 c255 185 464 377 661
608 197 229 378 541 473 814 34 99 64 208 71 265 3 17 7 42 11 55 14 58 21
324 10 385 -3 17 -10 57 -16 90 -48 270 -220 525 -466 689 -37 25 -43 34 -44
65 -4 153 -63 336 -162 501 -62 104 -230 308 -255 311 -4 0 -20 3 -36 5 -38 7
-80 -11 -96 -40 -7 -14 -13 -80 -14 -177 -4 -206 -36 -323 -131 -479 -33 -55
-40 -60 -93 -75 -59 -18 -145 -51 -222 -88 -42 -20 -202 -112 -225 -129 -132
-99 -223 -174 -278 -227 -37 -36 -72 -67 -77 -69 -5 -2 -31 18 -57 44 -109
107 -235 204 -423 324 -53 34 -190 95 -289 130 l-104 37 -43 74 c-85 147 -130
334 -121 511 4 106 -8 141 -56 158 -49 17 -74 12 -114 -22z"/>
</g>
</svg>
